<mxfile host="app.diagrams.net" agent="Mozilla/5.0 (Windows NT 10.0; Win64; x64) AppleWebKit/537.36 (KHTML, like Gecko) Chrome/132.0.0.0 Safari/537.36" version="24.7.17">
  <diagram id="l8hXMBHkgcEJcSW0mbfh" name="Page-1">
    <mxGraphModel dx="1218" dy="1749" grid="1" gridSize="10" guides="1" tooltips="1" connect="1" arrows="1" fold="1" page="1" pageScale="1" pageWidth="1169" pageHeight="827" math="0" shadow="0">
      <root>
        <mxCell id="0" />
        <mxCell id="1" parent="0" />
        <mxCell id="8--HhbSZYtI3ddgJnD71-37" style="edgeStyle=none;rounded=0;orthogonalLoop=1;jettySize=auto;html=1;sourcePerimeterSpacing=5;endArrow=none;endFill=0;targetPerimeterSpacing=5;" parent="1" source="8--HhbSZYtI3ddgJnD71-8" target="8--HhbSZYtI3ddgJnD71-10" edge="1">
          <mxGeometry relative="1" as="geometry">
            <mxPoint x="470" y="350" as="sourcePoint" />
          </mxGeometry>
        </mxCell>
        <mxCell id="8--HhbSZYtI3ddgJnD71-8" value="Business" style="shape=image;verticalLabelPosition=bottom;verticalAlign=top;imageAspect=0;aspect=fixed;image=data:image/svg+xml,PHN2ZyB4bWxucz0iaHR0cDovL3d3dy53My5vcmcvMjAwMC9zdmciIHZlcnNpb249IjEiIHZpZXdCb3g9IjAgMCA0OCA0OCIgZW5hYmxlLWJhY2tncm91bmQ9Im5ldyAwIDAgNDggNDgiPiYjeGE7ICAgIDxnIGZpbGw9IiMyNjMyMzgiPiYjeGE7ICAgICAgICA8cGF0aCBkPSJNMTEsNDRIOWMtMC42LDAtMS0wLjQtMS0xdi0yaDR2MkMxMiw0My42LDExLjYsNDQsMTEsNDR6Ii8+JiN4YTsgICAgICAgIDxwYXRoIGQ9Ik0zOSw0NGgtMmMtMC42LDAtMS0wLjQtMS0xdi0yaDR2MkM0MCw0My42LDM5LjYsNDQsMzksNDR6Ii8+JiN4YTsgICAgPC9nPiYjeGE7ICAgIDxwYXRoIGZpbGw9IiMzNzQ3NEYiIGQ9Ik0yNyw3aC02Yy0xLjcsMC0zLDEuMy0zLDN2M2gydi0zYzAtMC42LDAuNC0xLDEtMWg2YzAuNiwwLDEsMC40LDEsMXYzaDJ2LTNDMzAsOC4zLDI4LjcsNywyNyw3eiIvPiYjeGE7ICAgIDxwYXRoIGZpbGw9IiM3ODkwOUMiIGQ9Ik00MCw0M0g4Yy0yLjIsMC00LTEuOC00LTRWMTVjMC0yLjIsMS44LTQsNC00aDMyYzIuMiwwLDQsMS44LDQsNHYyNEM0NCw0MS4yLDQyLjIsNDMsNDAsNDN6Ii8+JiN4YTs8L3N2Zz4=;labelBackgroundColor=#ffffff;fontColor=none;noLabel=1;" parent="1" vertex="1">
          <mxGeometry x="220" y="317" width="48" height="48" as="geometry" />
        </mxCell>
        <mxCell id="8--HhbSZYtI3ddgJnD71-10" value="Storage" style="shape=image;verticalLabelPosition=bottom;verticalAlign=top;imageAspect=0;aspect=fixed;image=data:image/svg+xml,PHN2ZyB4bWxucz0iaHR0cDovL3d3dy53My5vcmcvMjAwMC9zdmciIHZlcnNpb249IjEiIHZpZXdCb3g9IjAgMCA0OCA0OCIgZW5hYmxlLWJhY2tncm91bmQ9Im5ldyAwIDAgNDggNDgiPiYjeGE7ICAgIDxyZWN0IHg9IjEyIiB5PSI0NCIgZmlsbD0iIzI2MzIzOCIgd2lkdGg9IjQiIGhlaWdodD0iMiIvPiYjeGE7ICAgIDxyZWN0IHg9IjMyIiB5PSI0NCIgZmlsbD0iIzI2MzIzOCIgd2lkdGg9IjQiIGhlaWdodD0iMiIvPiYjeGE7ICAgIDxwYXRoIGZpbGw9IiM2MDdEOEIiIGQ9Ik04LDQxVjdjMC0yLjIsMS44LTQsNC00aDI0YzIuMiwwLDQsMS44LDQsNHYzNGMwLDIuMi0xLjgsNC00LDRIMTJDOS44LDQ1LDgsNDMuMiw4LDQxeiIvPiYjeGE7ICAgIDxwYXRoIGZpbGw9IiNCMEJFQzUiIGQ9Ik0xMiwxN1Y4YzAtMC42LDAuNC0xLDEtMWgyMmMwLjYsMCwxLDAuNCwxLDF2OUgxMnoiLz4mI3hhOyAgICA8cmVjdCB4PSIxMiIgeT0iMTkiIGZpbGw9IiNCMEJFQzUiIHdpZHRoPSIyNCIgaGVpZ2h0PSIxMCIvPiYjeGE7ICAgIDxwYXRoIGZpbGw9IiNCMEJFQzUiIGQ9Ik0xMiw0MHYtOWgyNHY5YzAsMC42LTAuNCwxLTEsMUgxM0MxMi40LDQxLDEyLDQwLjYsMTIsNDB6Ii8+JiN4YTsgICAgPHJlY3QgeD0iMjAiIHk9IjExIiBmaWxsPSIjNTQ2RTdBIiB3aWR0aD0iOCIgaGVpZ2h0PSIyIi8+JiN4YTsgICAgPHJlY3QgeD0iMjAiIHk9IjIzIiBmaWxsPSIjNTQ2RTdBIiB3aWR0aD0iOCIgaGVpZ2h0PSIyIi8+JiN4YTsgICAgPHJlY3QgeD0iMjAiIHk9IjM1IiBmaWxsPSIjNTQ2RTdBIiB3aWR0aD0iOCIgaGVpZ2h0PSIyIi8+JiN4YTs8L3N2Zz4=;labelBackgroundColor=#ffffff;fontColor=none;noLabel=1;" parent="1" vertex="1">
          <mxGeometry x="570" y="120" width="48" height="48" as="geometry" />
        </mxCell>
        <mxCell id="A5XyS65-MMVEptwIIjuN-5" style="edgeStyle=none;rounded=0;orthogonalLoop=1;jettySize=auto;html=1;sourcePerimeterSpacing=5;endArrow=none;endFill=0;targetPerimeterSpacing=5;" edge="1" parent="1" source="A5XyS65-MMVEptwIIjuN-7" target="8--HhbSZYtI3ddgJnD71-10">
          <mxGeometry relative="1" as="geometry">
            <mxPoint x="680" y="347" as="sourcePoint" />
            <mxPoint x="777" y="200" as="targetPoint" />
          </mxGeometry>
        </mxCell>
        <mxCell id="A5XyS65-MMVEptwIIjuN-7" value="Business" style="shape=image;verticalLabelPosition=bottom;verticalAlign=top;imageAspect=0;aspect=fixed;image=data:image/svg+xml,PHN2ZyB4bWxucz0iaHR0cDovL3d3dy53My5vcmcvMjAwMC9zdmciIHZlcnNpb249IjEiIHZpZXdCb3g9IjAgMCA0OCA0OCIgZW5hYmxlLWJhY2tncm91bmQ9Im5ldyAwIDAgNDggNDgiPiYjeGE7ICAgIDxnIGZpbGw9IiMyNjMyMzgiPiYjeGE7ICAgICAgICA8cGF0aCBkPSJNMTEsNDRIOWMtMC42LDAtMS0wLjQtMS0xdi0yaDR2MkMxMiw0My42LDExLjYsNDQsMTEsNDR6Ii8+JiN4YTsgICAgICAgIDxwYXRoIGQ9Ik0zOSw0NGgtMmMtMC42LDAtMS0wLjQtMS0xdi0yaDR2MkM0MCw0My42LDM5LjYsNDQsMzksNDR6Ii8+JiN4YTsgICAgPC9nPiYjeGE7ICAgIDxwYXRoIGZpbGw9IiMzNzQ3NEYiIGQ9Ik0yNyw3aC02Yy0xLjcsMC0zLDEuMy0zLDN2M2gydi0zYzAtMC42LDAuNC0xLDEtMWg2YzAuNiwwLDEsMC40LDEsMXYzaDJ2LTNDMzAsOC4zLDI4LjcsNywyNyw3eiIvPiYjeGE7ICAgIDxwYXRoIGZpbGw9IiM3ODkwOUMiIGQ9Ik00MCw0M0g4Yy0yLjIsMC00LTEuOC00LTRWMTVjMC0yLjIsMS44LTQsNC00aDMyYzIuMiwwLDQsMS44LDQsNHYyNEM0NCw0MS4yLDQyLjIsNDMsNDAsNDN6Ii8+JiN4YTs8L3N2Zz4=;labelBackgroundColor=#ffffff;fontColor=none;noLabel=1;" vertex="1" parent="1">
          <mxGeometry x="920" y="317" width="48" height="48" as="geometry" />
        </mxCell>
        <mxCell id="A5XyS65-MMVEptwIIjuN-8" style="edgeStyle=none;rounded=0;orthogonalLoop=1;jettySize=auto;html=1;sourcePerimeterSpacing=5;endArrow=none;endFill=0;targetPerimeterSpacing=5;" edge="1" parent="1" source="A5XyS65-MMVEptwIIjuN-10" target="8--HhbSZYtI3ddgJnD71-10">
          <mxGeometry relative="1" as="geometry">
            <mxPoint x="490" y="370" as="sourcePoint" />
            <mxPoint x="587" y="223" as="targetPoint" />
          </mxGeometry>
        </mxCell>
        <mxCell id="A5XyS65-MMVEptwIIjuN-10" value="Business" style="shape=image;verticalLabelPosition=bottom;verticalAlign=top;imageAspect=0;aspect=fixed;image=data:image/svg+xml,PHN2ZyB4bWxucz0iaHR0cDovL3d3dy53My5vcmcvMjAwMC9zdmciIHZlcnNpb249IjEiIHZpZXdCb3g9IjAgMCA0OCA0OCIgZW5hYmxlLWJhY2tncm91bmQ9Im5ldyAwIDAgNDggNDgiPiYjeGE7ICAgIDxnIGZpbGw9IiMyNjMyMzgiPiYjeGE7ICAgICAgICA8cGF0aCBkPSJNMTEsNDRIOWMtMC42LDAtMS0wLjQtMS0xdi0yaDR2MkMxMiw0My42LDExLjYsNDQsMTEsNDR6Ii8+JiN4YTsgICAgICAgIDxwYXRoIGQ9Ik0zOSw0NGgtMmMtMC42LDAtMS0wLjQtMS0xdi0yaDR2MkM0MCw0My42LDM5LjYsNDQsMzksNDR6Ii8+JiN4YTsgICAgPC9nPiYjeGE7ICAgIDxwYXRoIGZpbGw9IiMzNzQ3NEYiIGQ9Ik0yNyw3aC02Yy0xLjcsMC0zLDEuMy0zLDN2M2gydi0zYzAtMC42LDAuNC0xLDEtMWg2YzAuNiwwLDEsMC40LDEsMXYzaDJ2LTNDMzAsOC4zLDI4LjcsNywyNyw3eiIvPiYjeGE7ICAgIDxwYXRoIGZpbGw9IiM3ODkwOUMiIGQ9Ik00MCw0M0g4Yy0yLjIsMC00LTEuOC00LTRWMTVjMC0yLjIsMS44LTQsNC00aDMyYzIuMiwwLDQsMS44LDQsNHYyNEM0NCw0MS4yLDQyLjIsNDMsNDAsNDN6Ii8+JiN4YTs8L3N2Zz4=;labelBackgroundColor=#ffffff;fontColor=none;noLabel=1;" vertex="1" parent="1">
          <mxGeometry x="450" y="320" width="48" height="48" as="geometry" />
        </mxCell>
        <mxCell id="A5XyS65-MMVEptwIIjuN-12" style="edgeStyle=none;rounded=0;orthogonalLoop=1;jettySize=auto;html=1;sourcePerimeterSpacing=5;endArrow=none;endFill=0;targetPerimeterSpacing=5;" edge="1" parent="1" source="A5XyS65-MMVEptwIIjuN-14" target="8--HhbSZYtI3ddgJnD71-10">
          <mxGeometry relative="1" as="geometry">
            <mxPoint x="680" y="337" as="sourcePoint" />
            <mxPoint x="777" y="190" as="targetPoint" />
          </mxGeometry>
        </mxCell>
        <mxCell id="A5XyS65-MMVEptwIIjuN-14" value="Business" style="shape=image;verticalLabelPosition=bottom;verticalAlign=top;imageAspect=0;aspect=fixed;image=data:image/svg+xml,PHN2ZyB4bWxucz0iaHR0cDovL3d3dy53My5vcmcvMjAwMC9zdmciIHZlcnNpb249IjEiIHZpZXdCb3g9IjAgMCA0OCA0OCIgZW5hYmxlLWJhY2tncm91bmQ9Im5ldyAwIDAgNDggNDgiPiYjeGE7ICAgIDxnIGZpbGw9IiMyNjMyMzgiPiYjeGE7ICAgICAgICA8cGF0aCBkPSJNMTEsNDRIOWMtMC42LDAtMS0wLjQtMS0xdi0yaDR2MkMxMiw0My42LDExLjYsNDQsMTEsNDR6Ii8+JiN4YTsgICAgICAgIDxwYXRoIGQ9Ik0zOSw0NGgtMmMtMC42LDAtMS0wLjQtMS0xdi0yaDR2MkM0MCw0My42LDM5LjYsNDQsMzksNDR6Ii8+JiN4YTsgICAgPC9nPiYjeGE7ICAgIDxwYXRoIGZpbGw9IiMzNzQ3NEYiIGQ9Ik0yNyw3aC02Yy0xLjcsMC0zLDEuMy0zLDN2M2gydi0zYzAtMC42LDAuNC0xLDEtMWg2YzAuNiwwLDEsMC40LDEsMXYzaDJ2LTNDMzAsOC4zLDI4LjcsNywyNyw3eiIvPiYjeGE7ICAgIDxwYXRoIGZpbGw9IiM3ODkwOUMiIGQ9Ik00MCw0M0g4Yy0yLjIsMC00LTEuOC00LTRWMTVjMC0yLjIsMS44LTQsNC00aDMyYzIuMiwwLDQsMS44LDQsNHYyNEM0NCw0MS4yLDQyLjIsNDMsNDAsNDN6Ii8+JiN4YTs8L3N2Zz4=;labelBackgroundColor=#ffffff;fontColor=none;noLabel=1;" vertex="1" parent="1">
          <mxGeometry x="710" y="317" width="48" height="48" as="geometry" />
        </mxCell>
        <mxCell id="A5XyS65-MMVEptwIIjuN-15" style="edgeStyle=none;rounded=0;orthogonalLoop=1;jettySize=auto;html=1;sourcePerimeterSpacing=5;endArrow=none;endFill=0;targetPerimeterSpacing=5;" edge="1" parent="1" source="A5XyS65-MMVEptwIIjuN-16" target="8--HhbSZYtI3ddgJnD71-8">
          <mxGeometry relative="1" as="geometry">
            <mxPoint x="200" y="537" as="sourcePoint" />
            <mxPoint x="270" y="390" as="targetPoint" />
          </mxGeometry>
        </mxCell>
        <mxCell id="A5XyS65-MMVEptwIIjuN-16" value="Business" style="shape=image;verticalLabelPosition=bottom;verticalAlign=top;imageAspect=0;aspect=fixed;image=data:image/svg+xml,PHN2ZyB4bWxucz0iaHR0cDovL3d3dy53My5vcmcvMjAwMC9zdmciIHZlcnNpb249IjEiIHZpZXdCb3g9IjAgMCA0OCA0OCIgZW5hYmxlLWJhY2tncm91bmQ9Im5ldyAwIDAgNDggNDgiPiYjeGE7ICAgIDxnIGZpbGw9IiMyNjMyMzgiPiYjeGE7ICAgICAgICA8cGF0aCBkPSJNMTEsNDRIOWMtMC42LDAtMS0wLjQtMS0xdi0yaDR2MkMxMiw0My42LDExLjYsNDQsMTEsNDR6Ii8+JiN4YTsgICAgICAgIDxwYXRoIGQ9Ik0zOSw0NGgtMmMtMC42LDAtMS0wLjQtMS0xdi0yaDR2MkM0MCw0My42LDM5LjYsNDQsMzksNDR6Ii8+JiN4YTsgICAgPC9nPiYjeGE7ICAgIDxwYXRoIGZpbGw9IiMzNzQ3NEYiIGQ9Ik0yNyw3aC02Yy0xLjcsMC0zLDEuMy0zLDN2M2gydi0zYzAtMC42LDAuNC0xLDEtMWg2YzAuNiwwLDEsMC40LDEsMXYzaDJ2LTNDMzAsOC4zLDI4LjcsNywyNyw3eiIvPiYjeGE7ICAgIDxwYXRoIGZpbGw9IiM3ODkwOUMiIGQ9Ik00MCw0M0g4Yy0yLjIsMC00LTEuOC00LTRWMTVjMC0yLjIsMS44LTQsNC00aDMyYzIuMiwwLDQsMS44LDQsNHYyNEM0NCw0MS4yLDQyLjIsNDMsNDAsNDN6Ii8+JiN4YTs8L3N2Zz4=;labelBackgroundColor=#ffffff;fontColor=none;noLabel=1;" vertex="1" parent="1">
          <mxGeometry x="82" y="450" width="48" height="48" as="geometry" />
        </mxCell>
        <mxCell id="A5XyS65-MMVEptwIIjuN-17" style="edgeStyle=none;rounded=0;orthogonalLoop=1;jettySize=auto;html=1;sourcePerimeterSpacing=5;endArrow=none;endFill=0;targetPerimeterSpacing=5;" edge="1" parent="1" source="A5XyS65-MMVEptwIIjuN-18" target="8--HhbSZYtI3ddgJnD71-8">
          <mxGeometry relative="1" as="geometry">
            <mxPoint x="220" y="557" as="sourcePoint" />
            <mxPoint x="307" y="360" as="targetPoint" />
          </mxGeometry>
        </mxCell>
        <mxCell id="A5XyS65-MMVEptwIIjuN-18" value="Business" style="shape=image;verticalLabelPosition=bottom;verticalAlign=top;imageAspect=0;aspect=fixed;image=data:image/svg+xml,PHN2ZyB4bWxucz0iaHR0cDovL3d3dy53My5vcmcvMjAwMC9zdmciIHZlcnNpb249IjEiIHZpZXdCb3g9IjAgMCA0OCA0OCIgZW5hYmxlLWJhY2tncm91bmQ9Im5ldyAwIDAgNDggNDgiPiYjeGE7ICAgIDxnIGZpbGw9IiMyNjMyMzgiPiYjeGE7ICAgICAgICA8cGF0aCBkPSJNMTEsNDRIOWMtMC42LDAtMS0wLjQtMS0xdi0yaDR2MkMxMiw0My42LDExLjYsNDQsMTEsNDR6Ii8+JiN4YTsgICAgICAgIDxwYXRoIGQ9Ik0zOSw0NGgtMmMtMC42LDAtMS0wLjQtMS0xdi0yaDR2MkM0MCw0My42LDM5LjYsNDQsMzksNDR6Ii8+JiN4YTsgICAgPC9nPiYjeGE7ICAgIDxwYXRoIGZpbGw9IiMzNzQ3NEYiIGQ9Ik0yNyw3aC02Yy0xLjcsMC0zLDEuMy0zLDN2M2gydi0zYzAtMC42LDAuNC0xLDEtMWg2YzAuNiwwLDEsMC40LDEsMXYzaDJ2LTNDMzAsOC4zLDI4LjcsNywyNyw3eiIvPiYjeGE7ICAgIDxwYXRoIGZpbGw9IiM3ODkwOUMiIGQ9Ik00MCw0M0g4Yy0yLjIsMC00LTEuOC00LTRWMTVjMC0yLjIsMS44LTQsNC00aDMyYzIuMiwwLDQsMS44LDQsNHYyNEM0NCw0MS4yLDQyLjIsNDMsNDAsNDN6Ii8+JiN4YTs8L3N2Zz4=;labelBackgroundColor=#ffffff;fontColor=none;noLabel=1;" vertex="1" parent="1">
          <mxGeometry x="268" y="450" width="48" height="48" as="geometry" />
        </mxCell>
        <mxCell id="A5XyS65-MMVEptwIIjuN-19" style="edgeStyle=none;rounded=0;orthogonalLoop=1;jettySize=auto;html=1;sourcePerimeterSpacing=5;endArrow=none;endFill=0;targetPerimeterSpacing=5;" edge="1" parent="1" source="A5XyS65-MMVEptwIIjuN-20">
          <mxGeometry relative="1" as="geometry">
            <mxPoint x="380" y="537" as="sourcePoint" />
            <mxPoint x="458" y="373" as="targetPoint" />
          </mxGeometry>
        </mxCell>
        <mxCell id="A5XyS65-MMVEptwIIjuN-20" value="Business" style="shape=image;verticalLabelPosition=bottom;verticalAlign=top;imageAspect=0;aspect=fixed;image=data:image/svg+xml,PHN2ZyB4bWxucz0iaHR0cDovL3d3dy53My5vcmcvMjAwMC9zdmciIHZlcnNpb249IjEiIHZpZXdCb3g9IjAgMCA0OCA0OCIgZW5hYmxlLWJhY2tncm91bmQ9Im5ldyAwIDAgNDggNDgiPiYjeGE7ICAgIDxnIGZpbGw9IiMyNjMyMzgiPiYjeGE7ICAgICAgICA8cGF0aCBkPSJNMTEsNDRIOWMtMC42LDAtMS0wLjQtMS0xdi0yaDR2MkMxMiw0My42LDExLjYsNDQsMTEsNDR6Ii8+JiN4YTsgICAgICAgIDxwYXRoIGQ9Ik0zOSw0NGgtMmMtMC42LDAtMS0wLjQtMS0xdi0yaDR2MkM0MCw0My42LDM5LjYsNDQsMzksNDR6Ii8+JiN4YTsgICAgPC9nPiYjeGE7ICAgIDxwYXRoIGZpbGw9IiMzNzQ3NEYiIGQ9Ik0yNyw3aC02Yy0xLjcsMC0zLDEuMy0zLDN2M2gydi0zYzAtMC42LDAuNC0xLDEtMWg2YzAuNiwwLDEsMC40LDEsMXYzaDJ2LTNDMzAsOC4zLDI4LjcsNywyNyw3eiIvPiYjeGE7ICAgIDxwYXRoIGZpbGw9IiM3ODkwOUMiIGQ9Ik00MCw0M0g4Yy0yLjIsMC00LTEuOC00LTRWMTVjMC0yLjIsMS44LTQsNC00aDMyYzIuMiwwLDQsMS44LDQsNHYyNEM0NCw0MS4yLDQyLjIsNDMsNDAsNDN6Ii8+JiN4YTs8L3N2Zz4=;labelBackgroundColor=#ffffff;fontColor=none;noLabel=1;" vertex="1" parent="1">
          <mxGeometry x="380" y="450" width="48" height="48" as="geometry" />
        </mxCell>
        <mxCell id="A5XyS65-MMVEptwIIjuN-21" style="edgeStyle=none;rounded=0;orthogonalLoop=1;jettySize=auto;html=1;sourcePerimeterSpacing=5;endArrow=none;endFill=0;targetPerimeterSpacing=5;" edge="1" parent="1" source="A5XyS65-MMVEptwIIjuN-22">
          <mxGeometry relative="1" as="geometry">
            <mxPoint x="400" y="557" as="sourcePoint" />
            <mxPoint x="485" y="373" as="targetPoint" />
          </mxGeometry>
        </mxCell>
        <mxCell id="A5XyS65-MMVEptwIIjuN-22" value="Business" style="shape=image;verticalLabelPosition=bottom;verticalAlign=top;imageAspect=0;aspect=fixed;image=data:image/svg+xml,PHN2ZyB4bWxucz0iaHR0cDovL3d3dy53My5vcmcvMjAwMC9zdmciIHZlcnNpb249IjEiIHZpZXdCb3g9IjAgMCA0OCA0OCIgZW5hYmxlLWJhY2tncm91bmQ9Im5ldyAwIDAgNDggNDgiPiYjeGE7ICAgIDxnIGZpbGw9IiMyNjMyMzgiPiYjeGE7ICAgICAgICA8cGF0aCBkPSJNMTEsNDRIOWMtMC42LDAtMS0wLjQtMS0xdi0yaDR2MkMxMiw0My42LDExLjYsNDQsMTEsNDR6Ii8+JiN4YTsgICAgICAgIDxwYXRoIGQ9Ik0zOSw0NGgtMmMtMC42LDAtMS0wLjQtMS0xdi0yaDR2MkM0MCw0My42LDM5LjYsNDQsMzksNDR6Ii8+JiN4YTsgICAgPC9nPiYjeGE7ICAgIDxwYXRoIGZpbGw9IiMzNzQ3NEYiIGQ9Ik0yNyw3aC02Yy0xLjcsMC0zLDEuMy0zLDN2M2gydi0zYzAtMC42LDAuNC0xLDEtMWg2YzAuNiwwLDEsMC40LDEsMXYzaDJ2LTNDMzAsOC4zLDI4LjcsNywyNyw3eiIvPiYjeGE7ICAgIDxwYXRoIGZpbGw9IiM3ODkwOUMiIGQ9Ik00MCw0M0g4Yy0yLjIsMC00LTEuOC00LTRWMTVjMC0yLjIsMS44LTQsNC00aDMyYzIuMiwwLDQsMS44LDQsNHYyNEM0NCw0MS4yLDQyLjIsNDMsNDAsNDN6Ii8+JiN4YTs8L3N2Zz4=;labelBackgroundColor=#ffffff;fontColor=none;noLabel=1;" vertex="1" parent="1">
          <mxGeometry x="498" y="450" width="48" height="48" as="geometry" />
        </mxCell>
        <mxCell id="A5XyS65-MMVEptwIIjuN-23" style="edgeStyle=none;rounded=0;orthogonalLoop=1;jettySize=auto;html=1;sourcePerimeterSpacing=5;endArrow=none;endFill=0;targetPerimeterSpacing=5;" edge="1" parent="1" source="A5XyS65-MMVEptwIIjuN-24">
          <mxGeometry relative="1" as="geometry">
            <mxPoint x="639" y="537" as="sourcePoint" />
            <mxPoint x="717" y="373" as="targetPoint" />
          </mxGeometry>
        </mxCell>
        <mxCell id="A5XyS65-MMVEptwIIjuN-24" value="Business" style="shape=image;verticalLabelPosition=bottom;verticalAlign=top;imageAspect=0;aspect=fixed;image=data:image/svg+xml,PHN2ZyB4bWxucz0iaHR0cDovL3d3dy53My5vcmcvMjAwMC9zdmciIHZlcnNpb249IjEiIHZpZXdCb3g9IjAgMCA0OCA0OCIgZW5hYmxlLWJhY2tncm91bmQ9Im5ldyAwIDAgNDggNDgiPiYjeGE7ICAgIDxnIGZpbGw9IiMyNjMyMzgiPiYjeGE7ICAgICAgICA8cGF0aCBkPSJNMTEsNDRIOWMtMC42LDAtMS0wLjQtMS0xdi0yaDR2MkMxMiw0My42LDExLjYsNDQsMTEsNDR6Ii8+JiN4YTsgICAgICAgIDxwYXRoIGQ9Ik0zOSw0NGgtMmMtMC42LDAtMS0wLjQtMS0xdi0yaDR2MkM0MCw0My42LDM5LjYsNDQsMzksNDR6Ii8+JiN4YTsgICAgPC9nPiYjeGE7ICAgIDxwYXRoIGZpbGw9IiMzNzQ3NEYiIGQ9Ik0yNyw3aC02Yy0xLjcsMC0zLDEuMy0zLDN2M2gydi0zYzAtMC42LDAuNC0xLDEtMWg2YzAuNiwwLDEsMC40LDEsMXYzaDJ2LTNDMzAsOC4zLDI4LjcsNywyNyw3eiIvPiYjeGE7ICAgIDxwYXRoIGZpbGw9IiM3ODkwOUMiIGQ9Ik00MCw0M0g4Yy0yLjIsMC00LTEuOC00LTRWMTVjMC0yLjIsMS44LTQsNC00aDMyYzIuMiwwLDQsMS44LDQsNHYyNEM0NCw0MS4yLDQyLjIsNDMsNDAsNDN6Ii8+JiN4YTs8L3N2Zz4=;labelBackgroundColor=#ffffff;fontColor=none;noLabel=1;" vertex="1" parent="1">
          <mxGeometry x="661" y="450" width="48" height="48" as="geometry" />
        </mxCell>
        <mxCell id="A5XyS65-MMVEptwIIjuN-25" style="edgeStyle=none;rounded=0;orthogonalLoop=1;jettySize=auto;html=1;sourcePerimeterSpacing=5;endArrow=none;endFill=0;targetPerimeterSpacing=5;" edge="1" parent="1" source="A5XyS65-MMVEptwIIjuN-26">
          <mxGeometry relative="1" as="geometry">
            <mxPoint x="659" y="557" as="sourcePoint" />
            <mxPoint x="749" y="370" as="targetPoint" />
          </mxGeometry>
        </mxCell>
        <mxCell id="A5XyS65-MMVEptwIIjuN-26" value="Business" style="shape=image;verticalLabelPosition=bottom;verticalAlign=top;imageAspect=0;aspect=fixed;image=data:image/svg+xml,PHN2ZyB4bWxucz0iaHR0cDovL3d3dy53My5vcmcvMjAwMC9zdmciIHZlcnNpb249IjEiIHZpZXdCb3g9IjAgMCA0OCA0OCIgZW5hYmxlLWJhY2tncm91bmQ9Im5ldyAwIDAgNDggNDgiPiYjeGE7ICAgIDxnIGZpbGw9IiMyNjMyMzgiPiYjeGE7ICAgICAgICA8cGF0aCBkPSJNMTEsNDRIOWMtMC42LDAtMS0wLjQtMS0xdi0yaDR2MkMxMiw0My42LDExLjYsNDQsMTEsNDR6Ii8+JiN4YTsgICAgICAgIDxwYXRoIGQ9Ik0zOSw0NGgtMmMtMC42LDAtMS0wLjQtMS0xdi0yaDR2MkM0MCw0My42LDM5LjYsNDQsMzksNDR6Ii8+JiN4YTsgICAgPC9nPiYjeGE7ICAgIDxwYXRoIGZpbGw9IiMzNzQ3NEYiIGQ9Ik0yNyw3aC02Yy0xLjcsMC0zLDEuMy0zLDN2M2gydi0zYzAtMC42LDAuNC0xLDEtMWg2YzAuNiwwLDEsMC40LDEsMXYzaDJ2LTNDMzAsOC4zLDI4LjcsNywyNyw3eiIvPiYjeGE7ICAgIDxwYXRoIGZpbGw9IiM3ODkwOUMiIGQ9Ik00MCw0M0g4Yy0yLjIsMC00LTEuOC00LTRWMTVjMC0yLjIsMS44LTQsNC00aDMyYzIuMiwwLDQsMS44LDQsNHYyNEM0NCw0MS4yLDQyLjIsNDMsNDAsNDN6Ii8+JiN4YTs8L3N2Zz4=;labelBackgroundColor=#ffffff;fontColor=none;noLabel=1;" vertex="1" parent="1">
          <mxGeometry x="769" y="450" width="48" height="48" as="geometry" />
        </mxCell>
        <mxCell id="A5XyS65-MMVEptwIIjuN-27" style="edgeStyle=none;rounded=0;orthogonalLoop=1;jettySize=auto;html=1;sourcePerimeterSpacing=5;endArrow=none;endFill=0;targetPerimeterSpacing=5;entryX=0.25;entryY=1;entryDx=0;entryDy=0;" edge="1" parent="1" source="A5XyS65-MMVEptwIIjuN-28" target="A5XyS65-MMVEptwIIjuN-7">
          <mxGeometry relative="1" as="geometry">
            <mxPoint x="790" y="537" as="sourcePoint" />
            <mxPoint x="868" y="373" as="targetPoint" />
          </mxGeometry>
        </mxCell>
        <mxCell id="A5XyS65-MMVEptwIIjuN-28" value="Business" style="shape=image;verticalLabelPosition=bottom;verticalAlign=top;imageAspect=0;aspect=fixed;image=data:image/svg+xml,PHN2ZyB4bWxucz0iaHR0cDovL3d3dy53My5vcmcvMjAwMC9zdmciIHZlcnNpb249IjEiIHZpZXdCb3g9IjAgMCA0OCA0OCIgZW5hYmxlLWJhY2tncm91bmQ9Im5ldyAwIDAgNDggNDgiPiYjeGE7ICAgIDxnIGZpbGw9IiMyNjMyMzgiPiYjeGE7ICAgICAgICA8cGF0aCBkPSJNMTEsNDRIOWMtMC42LDAtMS0wLjQtMS0xdi0yaDR2MkMxMiw0My42LDExLjYsNDQsMTEsNDR6Ii8+JiN4YTsgICAgICAgIDxwYXRoIGQ9Ik0zOSw0NGgtMmMtMC42LDAtMS0wLjQtMS0xdi0yaDR2MkM0MCw0My42LDM5LjYsNDQsMzksNDR6Ii8+JiN4YTsgICAgPC9nPiYjeGE7ICAgIDxwYXRoIGZpbGw9IiMzNzQ3NEYiIGQ9Ik0yNyw3aC02Yy0xLjcsMC0zLDEuMy0zLDN2M2gydi0zYzAtMC42LDAuNC0xLDEtMWg2YzAuNiwwLDEsMC40LDEsMXYzaDJ2LTNDMzAsOC4zLDI4LjcsNywyNyw3eiIvPiYjeGE7ICAgIDxwYXRoIGZpbGw9IiM3ODkwOUMiIGQ9Ik00MCw0M0g4Yy0yLjIsMC00LTEuOC00LTRWMTVjMC0yLjIsMS44LTQsNC00aDMyYzIuMiwwLDQsMS44LDQsNHYyNEM0NCw0MS4yLDQyLjIsNDMsNDAsNDN6Ii8+JiN4YTs8L3N2Zz4=;labelBackgroundColor=#ffffff;fontColor=none;noLabel=1;" vertex="1" parent="1">
          <mxGeometry x="910" y="450" width="48" height="48" as="geometry" />
        </mxCell>
        <mxCell id="A5XyS65-MMVEptwIIjuN-29" style="edgeStyle=none;rounded=0;orthogonalLoop=1;jettySize=auto;html=1;sourcePerimeterSpacing=5;endArrow=none;endFill=0;targetPerimeterSpacing=5;entryX=0.75;entryY=1;entryDx=0;entryDy=0;" edge="1" parent="1" source="A5XyS65-MMVEptwIIjuN-30" target="A5XyS65-MMVEptwIIjuN-7">
          <mxGeometry relative="1" as="geometry">
            <mxPoint x="810" y="557" as="sourcePoint" />
            <mxPoint x="895" y="373" as="targetPoint" />
          </mxGeometry>
        </mxCell>
        <mxCell id="A5XyS65-MMVEptwIIjuN-30" value="Business" style="shape=image;verticalLabelPosition=bottom;verticalAlign=top;imageAspect=0;aspect=fixed;image=data:image/svg+xml,PHN2ZyB4bWxucz0iaHR0cDovL3d3dy53My5vcmcvMjAwMC9zdmciIHZlcnNpb249IjEiIHZpZXdCb3g9IjAgMCA0OCA0OCIgZW5hYmxlLWJhY2tncm91bmQ9Im5ldyAwIDAgNDggNDgiPiYjeGE7ICAgIDxnIGZpbGw9IiMyNjMyMzgiPiYjeGE7ICAgICAgICA8cGF0aCBkPSJNMTEsNDRIOWMtMC42LDAtMS0wLjQtMS0xdi0yaDR2MkMxMiw0My42LDExLjYsNDQsMTEsNDR6Ii8+JiN4YTsgICAgICAgIDxwYXRoIGQ9Ik0zOSw0NGgtMmMtMC42LDAtMS0wLjQtMS0xdi0yaDR2MkM0MCw0My42LDM5LjYsNDQsMzksNDR6Ii8+JiN4YTsgICAgPC9nPiYjeGE7ICAgIDxwYXRoIGZpbGw9IiMzNzQ3NEYiIGQ9Ik0yNyw3aC02Yy0xLjcsMC0zLDEuMy0zLDN2M2gydi0zYzAtMC42LDAuNC0xLDEtMWg2YzAuNiwwLDEsMC40LDEsMXYzaDJ2LTNDMzAsOC4zLDI4LjcsNywyNyw3eiIvPiYjeGE7ICAgIDxwYXRoIGZpbGw9IiM3ODkwOUMiIGQ9Ik00MCw0M0g4Yy0yLjIsMC00LTEuOC00LTRWMTVjMC0yLjIsMS44LTQsNC00aDMyYzIuMiwwLDQsMS44LDQsNHYyNEM0NCw0MS4yLDQyLjIsNDMsNDAsNDN6Ii8+JiN4YTs8L3N2Zz4=;labelBackgroundColor=#ffffff;fontColor=none;noLabel=1;" vertex="1" parent="1">
          <mxGeometry x="1060" y="450" width="48" height="48" as="geometry" />
        </mxCell>
        <mxCell id="A5XyS65-MMVEptwIIjuN-31" value="&lt;font style=&quot;font-size: 25px;&quot;&gt;&lt;b&gt;instituto.local&lt;/b&gt;&lt;/font&gt;" style="text;strokeColor=none;align=center;fillColor=none;html=1;verticalAlign=middle;whiteSpace=wrap;rounded=0;" vertex="1" parent="1">
          <mxGeometry x="570" y="80" width="60" height="30" as="geometry" />
        </mxCell>
        <mxCell id="A5XyS65-MMVEptwIIjuN-32" value="&lt;font style=&quot;font-size: 25px;&quot;&gt;&lt;b&gt;ASIR&lt;/b&gt;&lt;/font&gt;" style="text;strokeColor=none;align=center;fillColor=none;html=1;verticalAlign=middle;whiteSpace=wrap;rounded=0;" vertex="1" parent="1">
          <mxGeometry x="198" y="280" width="60" height="30" as="geometry" />
        </mxCell>
        <mxCell id="A5XyS65-MMVEptwIIjuN-34" value="&lt;font style=&quot;font-size: 25px;&quot;&gt;&lt;b&gt;DAW&lt;/b&gt;&lt;/font&gt;" style="text;strokeColor=none;align=center;fillColor=none;html=1;verticalAlign=middle;whiteSpace=wrap;rounded=0;" vertex="1" parent="1">
          <mxGeometry x="420" y="280" width="60" height="30" as="geometry" />
        </mxCell>
        <mxCell id="A5XyS65-MMVEptwIIjuN-35" value="&lt;font style=&quot;font-size: 25px;&quot;&gt;&lt;b&gt;DAM&lt;/b&gt;&lt;/font&gt;" style="text;strokeColor=none;align=center;fillColor=none;html=1;verticalAlign=middle;whiteSpace=wrap;rounded=0;" vertex="1" parent="1">
          <mxGeometry x="690" y="280" width="60" height="30" as="geometry" />
        </mxCell>
        <mxCell id="A5XyS65-MMVEptwIIjuN-36" value="&lt;font style=&quot;font-size: 25px;&quot;&gt;&lt;b&gt;SMR&lt;/b&gt;&lt;/font&gt;" style="text;strokeColor=none;align=center;fillColor=none;html=1;verticalAlign=middle;whiteSpace=wrap;rounded=0;" vertex="1" parent="1">
          <mxGeometry x="920" y="280" width="60" height="30" as="geometry" />
        </mxCell>
        <mxCell id="A5XyS65-MMVEptwIIjuN-37" value="&lt;font style=&quot;font-size: 25px;&quot;&gt;&lt;b&gt;1º&lt;/b&gt;&lt;/font&gt;" style="text;strokeColor=none;align=center;fillColor=none;html=1;verticalAlign=middle;whiteSpace=wrap;rounded=0;" vertex="1" parent="1">
          <mxGeometry x="76" y="420" width="60" height="30" as="geometry" />
        </mxCell>
        <mxCell id="A5XyS65-MMVEptwIIjuN-38" value="&lt;font style=&quot;font-size: 25px;&quot;&gt;&lt;b&gt;2º&lt;/b&gt;&lt;/font&gt;" style="text;strokeColor=none;align=center;fillColor=none;html=1;verticalAlign=middle;whiteSpace=wrap;rounded=0;" vertex="1" parent="1">
          <mxGeometry x="280" y="420" width="60" height="30" as="geometry" />
        </mxCell>
        <mxCell id="A5XyS65-MMVEptwIIjuN-39" value="&lt;font style=&quot;font-size: 25px;&quot;&gt;&lt;b&gt;1º&lt;/b&gt;&lt;/font&gt;" style="text;strokeColor=none;align=center;fillColor=none;html=1;verticalAlign=middle;whiteSpace=wrap;rounded=0;" vertex="1" parent="1">
          <mxGeometry x="360" y="420" width="60" height="30" as="geometry" />
        </mxCell>
        <mxCell id="A5XyS65-MMVEptwIIjuN-40" value="&lt;font style=&quot;font-size: 25px;&quot;&gt;&lt;b&gt;1º&lt;/b&gt;&lt;/font&gt;" style="text;strokeColor=none;align=center;fillColor=none;html=1;verticalAlign=middle;whiteSpace=wrap;rounded=0;" vertex="1" parent="1">
          <mxGeometry x="629" y="420" width="60" height="30" as="geometry" />
        </mxCell>
        <mxCell id="A5XyS65-MMVEptwIIjuN-41" value="&lt;font style=&quot;font-size: 25px;&quot;&gt;&lt;b&gt;1º&lt;/b&gt;&lt;/font&gt;" style="text;strokeColor=none;align=center;fillColor=none;html=1;verticalAlign=middle;whiteSpace=wrap;rounded=0;" vertex="1" parent="1">
          <mxGeometry x="880" y="420" width="60" height="30" as="geometry" />
        </mxCell>
        <mxCell id="A5XyS65-MMVEptwIIjuN-42" value="&lt;font style=&quot;font-size: 25px;&quot;&gt;&lt;b&gt;2º&lt;/b&gt;&lt;/font&gt;" style="text;strokeColor=none;align=center;fillColor=none;html=1;verticalAlign=middle;whiteSpace=wrap;rounded=0;" vertex="1" parent="1">
          <mxGeometry x="510" y="420" width="60" height="30" as="geometry" />
        </mxCell>
        <mxCell id="A5XyS65-MMVEptwIIjuN-43" value="&lt;font style=&quot;font-size: 25px;&quot;&gt;&lt;b&gt;2º&lt;/b&gt;&lt;/font&gt;" style="text;strokeColor=none;align=center;fillColor=none;html=1;verticalAlign=middle;whiteSpace=wrap;rounded=0;" vertex="1" parent="1">
          <mxGeometry x="779" y="420" width="60" height="30" as="geometry" />
        </mxCell>
        <mxCell id="A5XyS65-MMVEptwIIjuN-44" value="&lt;font style=&quot;font-size: 25px;&quot;&gt;&lt;b&gt;2º&lt;/b&gt;&lt;/font&gt;" style="text;strokeColor=none;align=center;fillColor=none;html=1;verticalAlign=middle;whiteSpace=wrap;rounded=0;" vertex="1" parent="1">
          <mxGeometry x="1060" y="420" width="60" height="30" as="geometry" />
        </mxCell>
        <mxCell id="A5XyS65-MMVEptwIIjuN-45" value="" style="shape=image;verticalLabelPosition=bottom;verticalAlign=top;imageAspect=0;aspect=fixed;image=data:image/svg+xml,PHN2ZyB4bWxucz0iaHR0cDovL3d3dy53My5vcmcvMjAwMC9zdmciIHZlcnNpb249IjEiIHZpZXdCb3g9IjAgMCA0OCA0OCIgZW5hYmxlLWJhY2tncm91bmQ9Im5ldyAwIDAgNDggNDgiPiYjeGE7ICAgIDxwYXRoIGZpbGw9IiM1NDZFN0EiIGQ9Ik00NCwzMEg0VjExYzAtMi4yLDEuOC00LDQtNGgzMmMyLjIsMCw0LDEuOCw0LDRWMzB6Ii8+JiN4YTsgICAgPHBhdGggZmlsbD0iIzY0QjVGNiIgZD0iTTQwLDI3SDhjLTAuNiwwLTEtMC40LTEtMVYxMWMwLTAuNiwwLjQtMSwxLTFoMzJjMC42LDAsMSwwLjQsMSwxdjE1QzQxLDI2LjYsNDAuNiwyNyw0MCwyN3oiLz4mI3hhOyAgICA8cGF0aCBmaWxsPSIjNzg5MDlDIiBkPSJNNDAsNDFIOGMtMi4yLDAtNC0xLjgtNC00di03aDQwdjdDNDQsMzkuMiw0Mi4yLDQxLDQwLDQxeiIvPiYjeGE7ICAgIDxnIGZpbGw9IiMzNzQ3NEYiPiYjeGE7ICAgICAgICA8cmVjdCB4PSIyNyIgeT0iMzQiIHdpZHRoPSIxMiIgaGVpZ2h0PSIyIi8+JiN4YTsgICAgICAgIDxyZWN0IHg9IjkiIHk9IjM0IiB3aWR0aD0iMTIiIGhlaWdodD0iMiIvPiYjeGE7ICAgICAgICA8cGF0aCBkPSJNMTgsMzVjMCwxLjEtMS4zLDItMywycy0zLTAuOS0zLTJIMTh6Ii8+JiN4YTsgICAgPC9nPiYjeGE7PC9zdmc+;" vertex="1" parent="1">
          <mxGeometry x="20" y="560" width="48" height="48" as="geometry" />
        </mxCell>
        <mxCell id="A5XyS65-MMVEptwIIjuN-56" value="" style="endArrow=none;html=1;rounded=0;entryX=0.25;entryY=1;entryDx=0;entryDy=0;exitX=0.75;exitY=0;exitDx=0;exitDy=0;" edge="1" parent="1" source="A5XyS65-MMVEptwIIjuN-45" target="A5XyS65-MMVEptwIIjuN-16">
          <mxGeometry width="50" height="50" relative="1" as="geometry">
            <mxPoint x="320" y="540" as="sourcePoint" />
            <mxPoint x="370" y="490" as="targetPoint" />
          </mxGeometry>
        </mxCell>
        <mxCell id="A5XyS65-MMVEptwIIjuN-57" value="" style="shape=image;verticalLabelPosition=bottom;verticalAlign=top;imageAspect=0;aspect=fixed;image=data:image/svg+xml,PHN2ZyB4bWxucz0iaHR0cDovL3d3dy53My5vcmcvMjAwMC9zdmciIHZlcnNpb249IjEiIHZpZXdCb3g9IjAgMCA0OCA0OCIgZW5hYmxlLWJhY2tncm91bmQ9Im5ldyAwIDAgNDggNDgiPiYjeGE7ICAgIDxwYXRoIGZpbGw9IiNGRjk4MDAiIGQ9Ik0yMiwzOGMtNC44LDAtNS03LTUtN3YtNmgxMHY2QzI3LDMxLDI2LjgsMzgsMjIsMzh6Ii8+JiN4YTsgICAgPGcgZmlsbD0iI0ZGQTcyNiI+JiN4YTsgICAgICAgIDxjaXJjbGUgY3g9IjMxIiBjeT0iMTkiIHI9IjIiLz4mI3hhOyAgICAgICAgPGNpcmNsZSBjeD0iMTMiIGN5PSIxOSIgcj0iMiIvPiYjeGE7ICAgIDwvZz4mI3hhOyAgICA8cGF0aCBmaWxsPSIjRkZCNzREIiBkPSJNMzEsMTNjMC03LjYtMTgtNS0xOCwwYzAsMS4xLDAsNS45LDAsN2MwLDUsNCw5LDksOXM5LTQsOS05QzMxLDE4LjksMzEsMTQuMSwzMSwxM3oiLz4mI3hhOyAgICA8cGF0aCBmaWxsPSIjNDI0MjQyIiBkPSJNMjIsNGMtNi4xLDAtMTAsNC45LTEwLDExYzAsMC44LDAsMi4zLDAsMi4zbDIsMS43di01bDEyLTRsNCw0djVsMi0xLjdjMCwwLDAtMS41LDAtMi4zYzAtNC0xLTgtNi05bC0xLTIgSDIyeiIvPiYjeGE7ICAgIDxnIGZpbGw9IiM3ODQ3MTkiPiYjeGE7ICAgICAgICA8Y2lyY2xlIGN4PSIyNiIgY3k9IjE5IiByPSIxIi8+JiN4YTsgICAgICAgIDxjaXJjbGUgY3g9IjE4IiBjeT0iMTkiIHI9IjEiLz4mI3hhOyAgICA8L2c+JiN4YTsgICAgPHBhdGggZmlsbD0iIzAwOTY4OCIgZD0iTTI3LDMxTDI3LDMxYzAsMC0xLjgsMi01LDJzLTUtMi01LTJTNiwzMyw2LDQ0aDMyQzM4LDMzLDI3LDMxLDI3LDMxeiIvPiYjeGE7ICAgIDxnIGZpbGw9IiNGRjk4MDAiPiYjeGE7ICAgICAgICA8cmVjdCB4PSIzNi4xIiB5PSI2LjEiIHRyYW5zZm9ybT0ibWF0cml4KC43MDcgLjcwNyAtLjcwNyAuNzA3IDE5Ljc4NyAtMjUuNzcpIiB3aWR0aD0iOS45IiBoZWlnaHQ9IjkuOSIvPiYjeGE7ICAgICAgICA8cmVjdCB4PSIzNiIgeT0iNiIgd2lkdGg9IjEwIiBoZWlnaHQ9IjEwIi8+JiN4YTsgICAgPC9nPiYjeGE7ICAgIDxjaXJjbGUgZmlsbD0iI0ZGRUIzQiIgY3g9IjQxIiBjeT0iMTEiIHI9IjMiLz4mI3hhOzwvc3ZnPg==;" vertex="1" parent="1">
          <mxGeometry x="100" y="560" width="48" height="48" as="geometry" />
        </mxCell>
        <mxCell id="A5XyS65-MMVEptwIIjuN-58" value="" style="endArrow=none;html=1;rounded=0;entryX=0.75;entryY=1;entryDx=0;entryDy=0;exitX=0.5;exitY=0;exitDx=0;exitDy=0;" edge="1" parent="1" source="A5XyS65-MMVEptwIIjuN-57" target="A5XyS65-MMVEptwIIjuN-16">
          <mxGeometry width="50" height="50" relative="1" as="geometry">
            <mxPoint x="106" y="560" as="sourcePoint" />
            <mxPoint x="172" y="508" as="targetPoint" />
          </mxGeometry>
        </mxCell>
        <mxCell id="A5XyS65-MMVEptwIIjuN-59" value="" style="shape=image;verticalLabelPosition=bottom;verticalAlign=top;imageAspect=0;aspect=fixed;image=data:image/svg+xml,PHN2ZyB4bWxucz0iaHR0cDovL3d3dy53My5vcmcvMjAwMC9zdmciIHZlcnNpb249IjEiIHZpZXdCb3g9IjAgMCA0OCA0OCIgZW5hYmxlLWJhY2tncm91bmQ9Im5ldyAwIDAgNDggNDgiPiYjeGE7ICAgIDxwYXRoIGZpbGw9IiM1NDZFN0EiIGQ9Ik00NCwzMEg0VjExYzAtMi4yLDEuOC00LDQtNGgzMmMyLjIsMCw0LDEuOCw0LDRWMzB6Ii8+JiN4YTsgICAgPHBhdGggZmlsbD0iIzY0QjVGNiIgZD0iTTQwLDI3SDhjLTAuNiwwLTEtMC40LTEtMVYxMWMwLTAuNiwwLjQtMSwxLTFoMzJjMC42LDAsMSwwLjQsMSwxdjE1QzQxLDI2LjYsNDAuNiwyNyw0MCwyN3oiLz4mI3hhOyAgICA8cGF0aCBmaWxsPSIjNzg5MDlDIiBkPSJNNDAsNDFIOGMtMi4yLDAtNC0xLjgtNC00di03aDQwdjdDNDQsMzkuMiw0Mi4yLDQxLDQwLDQxeiIvPiYjeGE7ICAgIDxnIGZpbGw9IiMzNzQ3NEYiPiYjeGE7ICAgICAgICA8cmVjdCB4PSIyNyIgeT0iMzQiIHdpZHRoPSIxMiIgaGVpZ2h0PSIyIi8+JiN4YTsgICAgICAgIDxyZWN0IHg9IjkiIHk9IjM0IiB3aWR0aD0iMTIiIGhlaWdodD0iMiIvPiYjeGE7ICAgICAgICA8cGF0aCBkPSJNMTgsMzVjMCwxLjEtMS4zLDItMywycy0zLTAuOS0zLTJIMTh6Ii8+JiN4YTsgICAgPC9nPiYjeGE7PC9zdmc+;" vertex="1" parent="1">
          <mxGeometry x="198" y="560" width="48" height="48" as="geometry" />
        </mxCell>
        <mxCell id="A5XyS65-MMVEptwIIjuN-60" value="" style="endArrow=none;html=1;rounded=0;entryX=0.25;entryY=1;entryDx=0;entryDy=0;exitX=0.75;exitY=0;exitDx=0;exitDy=0;" edge="1" parent="1" source="A5XyS65-MMVEptwIIjuN-59">
          <mxGeometry width="50" height="50" relative="1" as="geometry">
            <mxPoint x="442" y="540" as="sourcePoint" />
            <mxPoint x="284" y="498" as="targetPoint" />
          </mxGeometry>
        </mxCell>
        <mxCell id="A5XyS65-MMVEptwIIjuN-61" value="" style="shape=image;verticalLabelPosition=bottom;verticalAlign=top;imageAspect=0;aspect=fixed;image=data:image/svg+xml,PHN2ZyB4bWxucz0iaHR0cDovL3d3dy53My5vcmcvMjAwMC9zdmciIHZlcnNpb249IjEiIHZpZXdCb3g9IjAgMCA0OCA0OCIgZW5hYmxlLWJhY2tncm91bmQ9Im5ldyAwIDAgNDggNDgiPiYjeGE7ICAgIDxwYXRoIGZpbGw9IiNGRjk4MDAiIGQ9Ik0yMiwzOGMtNC44LDAtNS03LTUtN3YtNmgxMHY2QzI3LDMxLDI2LjgsMzgsMjIsMzh6Ii8+JiN4YTsgICAgPGcgZmlsbD0iI0ZGQTcyNiI+JiN4YTsgICAgICAgIDxjaXJjbGUgY3g9IjMxIiBjeT0iMTkiIHI9IjIiLz4mI3hhOyAgICAgICAgPGNpcmNsZSBjeD0iMTMiIGN5PSIxOSIgcj0iMiIvPiYjeGE7ICAgIDwvZz4mI3hhOyAgICA8cGF0aCBmaWxsPSIjRkZCNzREIiBkPSJNMzEsMTNjMC03LjYtMTgtNS0xOCwwYzAsMS4xLDAsNS45LDAsN2MwLDUsNCw5LDksOXM5LTQsOS05QzMxLDE4LjksMzEsMTQuMSwzMSwxM3oiLz4mI3hhOyAgICA8cGF0aCBmaWxsPSIjNDI0MjQyIiBkPSJNMjIsNGMtNi4xLDAtMTAsNC45LTEwLDExYzAsMC44LDAsMi4zLDAsMi4zbDIsMS43di01bDEyLTRsNCw0djVsMi0xLjdjMCwwLDAtMS41LDAtMi4zYzAtNC0xLTgtNi05bC0xLTIgSDIyeiIvPiYjeGE7ICAgIDxnIGZpbGw9IiM3ODQ3MTkiPiYjeGE7ICAgICAgICA8Y2lyY2xlIGN4PSIyNiIgY3k9IjE5IiByPSIxIi8+JiN4YTsgICAgICAgIDxjaXJjbGUgY3g9IjE4IiBjeT0iMTkiIHI9IjEiLz4mI3hhOyAgICA8L2c+JiN4YTsgICAgPHBhdGggZmlsbD0iIzAwOTY4OCIgZD0iTTI3LDMxTDI3LDMxYzAsMC0xLjgsMi01LDJzLTUtMi01LTJTNiwzMyw2LDQ0aDMyQzM4LDMzLDI3LDMxLDI3LDMxeiIvPiYjeGE7ICAgIDxnIGZpbGw9IiNGRjk4MDAiPiYjeGE7ICAgICAgICA8cmVjdCB4PSIzNi4xIiB5PSI2LjEiIHRyYW5zZm9ybT0ibWF0cml4KC43MDcgLjcwNyAtLjcwNyAuNzA3IDE5Ljc4NyAtMjUuNzcpIiB3aWR0aD0iOS45IiBoZWlnaHQ9IjkuOSIvPiYjeGE7ICAgICAgICA8cmVjdCB4PSIzNiIgeT0iNiIgd2lkdGg9IjEwIiBoZWlnaHQ9IjEwIi8+JiN4YTsgICAgPC9nPiYjeGE7ICAgIDxjaXJjbGUgZmlsbD0iI0ZGRUIzQiIgY3g9IjQxIiBjeT0iMTEiIHI9IjMiLz4mI3hhOzwvc3ZnPg==;" vertex="1" parent="1">
          <mxGeometry x="268" y="560" width="48" height="48" as="geometry" />
        </mxCell>
        <mxCell id="A5XyS65-MMVEptwIIjuN-62" value="" style="endArrow=none;html=1;rounded=0;entryX=0.5;entryY=1;entryDx=0;entryDy=0;exitX=0.5;exitY=0;exitDx=0;exitDy=0;" edge="1" parent="1" source="A5XyS65-MMVEptwIIjuN-61" target="A5XyS65-MMVEptwIIjuN-18">
          <mxGeometry width="50" height="50" relative="1" as="geometry">
            <mxPoint x="228" y="560" as="sourcePoint" />
            <mxPoint x="308" y="498" as="targetPoint" />
          </mxGeometry>
        </mxCell>
        <mxCell id="A5XyS65-MMVEptwIIjuN-63" value="" style="shape=image;verticalLabelPosition=bottom;verticalAlign=top;imageAspect=0;aspect=fixed;image=data:image/svg+xml,PHN2ZyB4bWxucz0iaHR0cDovL3d3dy53My5vcmcvMjAwMC9zdmciIHZlcnNpb249IjEiIHZpZXdCb3g9IjAgMCA0OCA0OCIgZW5hYmxlLWJhY2tncm91bmQ9Im5ldyAwIDAgNDggNDgiPiYjeGE7ICAgIDxwYXRoIGZpbGw9IiM1NDZFN0EiIGQ9Ik00NCwzMEg0VjExYzAtMi4yLDEuOC00LDQtNGgzMmMyLjIsMCw0LDEuOCw0LDRWMzB6Ii8+JiN4YTsgICAgPHBhdGggZmlsbD0iIzY0QjVGNiIgZD0iTTQwLDI3SDhjLTAuNiwwLTEtMC40LTEtMVYxMWMwLTAuNiwwLjQtMSwxLTFoMzJjMC42LDAsMSwwLjQsMSwxdjE1QzQxLDI2LjYsNDAuNiwyNyw0MCwyN3oiLz4mI3hhOyAgICA8cGF0aCBmaWxsPSIjNzg5MDlDIiBkPSJNNDAsNDFIOGMtMi4yLDAtNC0xLjgtNC00di03aDQwdjdDNDQsMzkuMiw0Mi4yLDQxLDQwLDQxeiIvPiYjeGE7ICAgIDxnIGZpbGw9IiMzNzQ3NEYiPiYjeGE7ICAgICAgICA8cmVjdCB4PSIyNyIgeT0iMzQiIHdpZHRoPSIxMiIgaGVpZ2h0PSIyIi8+JiN4YTsgICAgICAgIDxyZWN0IHg9IjkiIHk9IjM0IiB3aWR0aD0iMTIiIGhlaWdodD0iMiIvPiYjeGE7ICAgICAgICA8cGF0aCBkPSJNMTgsMzVjMCwxLjEtMS4zLDItMywycy0zLTAuOS0zLTJIMTh6Ii8+JiN4YTsgICAgPC9nPiYjeGE7PC9zdmc+;" vertex="1" parent="1">
          <mxGeometry x="340" y="560" width="48" height="48" as="geometry" />
        </mxCell>
        <mxCell id="A5XyS65-MMVEptwIIjuN-64" value="" style="endArrow=none;html=1;rounded=0;entryX=0.25;entryY=1;entryDx=0;entryDy=0;exitX=0.75;exitY=0;exitDx=0;exitDy=0;" edge="1" parent="1" source="A5XyS65-MMVEptwIIjuN-63" target="A5XyS65-MMVEptwIIjuN-20">
          <mxGeometry width="50" height="50" relative="1" as="geometry">
            <mxPoint x="569" y="540" as="sourcePoint" />
            <mxPoint x="411" y="498" as="targetPoint" />
          </mxGeometry>
        </mxCell>
        <mxCell id="A5XyS65-MMVEptwIIjuN-65" value="" style="shape=image;verticalLabelPosition=bottom;verticalAlign=top;imageAspect=0;aspect=fixed;image=data:image/svg+xml,PHN2ZyB4bWxucz0iaHR0cDovL3d3dy53My5vcmcvMjAwMC9zdmciIHZlcnNpb249IjEiIHZpZXdCb3g9IjAgMCA0OCA0OCIgZW5hYmxlLWJhY2tncm91bmQ9Im5ldyAwIDAgNDggNDgiPiYjeGE7ICAgIDxwYXRoIGZpbGw9IiNGRjk4MDAiIGQ9Ik0yMiwzOGMtNC44LDAtNS03LTUtN3YtNmgxMHY2QzI3LDMxLDI2LjgsMzgsMjIsMzh6Ii8+JiN4YTsgICAgPGcgZmlsbD0iI0ZGQTcyNiI+JiN4YTsgICAgICAgIDxjaXJjbGUgY3g9IjMxIiBjeT0iMTkiIHI9IjIiLz4mI3hhOyAgICAgICAgPGNpcmNsZSBjeD0iMTMiIGN5PSIxOSIgcj0iMiIvPiYjeGE7ICAgIDwvZz4mI3hhOyAgICA8cGF0aCBmaWxsPSIjRkZCNzREIiBkPSJNMzEsMTNjMC03LjYtMTgtNS0xOCwwYzAsMS4xLDAsNS45LDAsN2MwLDUsNCw5LDksOXM5LTQsOS05QzMxLDE4LjksMzEsMTQuMSwzMSwxM3oiLz4mI3hhOyAgICA8cGF0aCBmaWxsPSIjNDI0MjQyIiBkPSJNMjIsNGMtNi4xLDAtMTAsNC45LTEwLDExYzAsMC44LDAsMi4zLDAsMi4zbDIsMS43di01bDEyLTRsNCw0djVsMi0xLjdjMCwwLDAtMS41LDAtMi4zYzAtNC0xLTgtNi05bC0xLTIgSDIyeiIvPiYjeGE7ICAgIDxnIGZpbGw9IiM3ODQ3MTkiPiYjeGE7ICAgICAgICA8Y2lyY2xlIGN4PSIyNiIgY3k9IjE5IiByPSIxIi8+JiN4YTsgICAgICAgIDxjaXJjbGUgY3g9IjE4IiBjeT0iMTkiIHI9IjEiLz4mI3hhOyAgICA8L2c+JiN4YTsgICAgPHBhdGggZmlsbD0iIzAwOTY4OCIgZD0iTTI3LDMxTDI3LDMxYzAsMC0xLjgsMi01LDJzLTUtMi01LTJTNiwzMyw2LDQ0aDMyQzM4LDMzLDI3LDMxLDI3LDMxeiIvPiYjeGE7ICAgIDxnIGZpbGw9IiNGRjk4MDAiPiYjeGE7ICAgICAgICA8cmVjdCB4PSIzNi4xIiB5PSI2LjEiIHRyYW5zZm9ybT0ibWF0cml4KC43MDcgLjcwNyAtLjcwNyAuNzA3IDE5Ljc4NyAtMjUuNzcpIiB3aWR0aD0iOS45IiBoZWlnaHQ9IjkuOSIvPiYjeGE7ICAgICAgICA8cmVjdCB4PSIzNiIgeT0iNiIgd2lkdGg9IjEwIiBoZWlnaHQ9IjEwIi8+JiN4YTsgICAgPC9nPiYjeGE7ICAgIDxjaXJjbGUgZmlsbD0iI0ZGRUIzQiIgY3g9IjQxIiBjeT0iMTEiIHI9IjMiLz4mI3hhOzwvc3ZnPg==;" vertex="1" parent="1">
          <mxGeometry x="407" y="560" width="48" height="48" as="geometry" />
        </mxCell>
        <mxCell id="A5XyS65-MMVEptwIIjuN-66" value="" style="endArrow=none;html=1;rounded=0;entryX=0.5;entryY=1;entryDx=0;entryDy=0;exitX=0.479;exitY=0;exitDx=0;exitDy=0;exitPerimeter=0;" edge="1" parent="1" source="A5XyS65-MMVEptwIIjuN-65">
          <mxGeometry width="50" height="50" relative="1" as="geometry">
            <mxPoint x="355" y="560" as="sourcePoint" />
            <mxPoint x="419" y="498" as="targetPoint" />
          </mxGeometry>
        </mxCell>
        <mxCell id="A5XyS65-MMVEptwIIjuN-67" style="edgeStyle=orthogonalEdgeStyle;rounded=0;orthogonalLoop=1;jettySize=auto;html=1;exitX=0.5;exitY=1;exitDx=0;exitDy=0;" edge="1" parent="1" source="A5XyS65-MMVEptwIIjuN-41" target="A5XyS65-MMVEptwIIjuN-41">
          <mxGeometry relative="1" as="geometry" />
        </mxCell>
        <mxCell id="A5XyS65-MMVEptwIIjuN-68" value="" style="shape=image;verticalLabelPosition=bottom;verticalAlign=top;imageAspect=0;aspect=fixed;image=data:image/svg+xml,PHN2ZyB4bWxucz0iaHR0cDovL3d3dy53My5vcmcvMjAwMC9zdmciIHZlcnNpb249IjEiIHZpZXdCb3g9IjAgMCA0OCA0OCIgZW5hYmxlLWJhY2tncm91bmQ9Im5ldyAwIDAgNDggNDgiPiYjeGE7ICAgIDxwYXRoIGZpbGw9IiM1NDZFN0EiIGQ9Ik00NCwzMEg0VjExYzAtMi4yLDEuOC00LDQtNGgzMmMyLjIsMCw0LDEuOCw0LDRWMzB6Ii8+JiN4YTsgICAgPHBhdGggZmlsbD0iIzY0QjVGNiIgZD0iTTQwLDI3SDhjLTAuNiwwLTEtMC40LTEtMVYxMWMwLTAuNiwwLjQtMSwxLTFoMzJjMC42LDAsMSwwLjQsMSwxdjE1QzQxLDI2LjYsNDAuNiwyNyw0MCwyN3oiLz4mI3hhOyAgICA8cGF0aCBmaWxsPSIjNzg5MDlDIiBkPSJNNDAsNDFIOGMtMi4yLDAtNC0xLjgtNC00di03aDQwdjdDNDQsMzkuMiw0Mi4yLDQxLDQwLDQxeiIvPiYjeGE7ICAgIDxnIGZpbGw9IiMzNzQ3NEYiPiYjeGE7ICAgICAgICA8cmVjdCB4PSIyNyIgeT0iMzQiIHdpZHRoPSIxMiIgaGVpZ2h0PSIyIi8+JiN4YTsgICAgICAgIDxyZWN0IHg9IjkiIHk9IjM0IiB3aWR0aD0iMTIiIGhlaWdodD0iMiIvPiYjeGE7ICAgICAgICA8cGF0aCBkPSJNMTgsMzVjMCwxLjEtMS4zLDItMywycy0zLTAuOS0zLTJIMTh6Ii8+JiN4YTsgICAgPC9nPiYjeGE7PC9zdmc+;" vertex="1" parent="1">
          <mxGeometry x="464.5" y="560" width="48" height="48" as="geometry" />
        </mxCell>
        <mxCell id="A5XyS65-MMVEptwIIjuN-69" value="" style="endArrow=none;html=1;rounded=0;entryX=0.25;entryY=1;entryDx=0;entryDy=0;exitX=0.75;exitY=0;exitDx=0;exitDy=0;" edge="1" parent="1" source="A5XyS65-MMVEptwIIjuN-68">
          <mxGeometry width="50" height="50" relative="1" as="geometry">
            <mxPoint x="693.5" y="540" as="sourcePoint" />
            <mxPoint x="516.5" y="498" as="targetPoint" />
          </mxGeometry>
        </mxCell>
        <mxCell id="A5XyS65-MMVEptwIIjuN-70" value="" style="shape=image;verticalLabelPosition=bottom;verticalAlign=top;imageAspect=0;aspect=fixed;image=data:image/svg+xml,PHN2ZyB4bWxucz0iaHR0cDovL3d3dy53My5vcmcvMjAwMC9zdmciIHZlcnNpb249IjEiIHZpZXdCb3g9IjAgMCA0OCA0OCIgZW5hYmxlLWJhY2tncm91bmQ9Im5ldyAwIDAgNDggNDgiPiYjeGE7ICAgIDxwYXRoIGZpbGw9IiNGRjk4MDAiIGQ9Ik0yMiwzOGMtNC44LDAtNS03LTUtN3YtNmgxMHY2QzI3LDMxLDI2LjgsMzgsMjIsMzh6Ii8+JiN4YTsgICAgPGcgZmlsbD0iI0ZGQTcyNiI+JiN4YTsgICAgICAgIDxjaXJjbGUgY3g9IjMxIiBjeT0iMTkiIHI9IjIiLz4mI3hhOyAgICAgICAgPGNpcmNsZSBjeD0iMTMiIGN5PSIxOSIgcj0iMiIvPiYjeGE7ICAgIDwvZz4mI3hhOyAgICA8cGF0aCBmaWxsPSIjRkZCNzREIiBkPSJNMzEsMTNjMC03LjYtMTgtNS0xOCwwYzAsMS4xLDAsNS45LDAsN2MwLDUsNCw5LDksOXM5LTQsOS05QzMxLDE4LjksMzEsMTQuMSwzMSwxM3oiLz4mI3hhOyAgICA8cGF0aCBmaWxsPSIjNDI0MjQyIiBkPSJNMjIsNGMtNi4xLDAtMTAsNC45LTEwLDExYzAsMC44LDAsMi4zLDAsMi4zbDIsMS43di01bDEyLTRsNCw0djVsMi0xLjdjMCwwLDAtMS41LDAtMi4zYzAtNC0xLTgtNi05bC0xLTIgSDIyeiIvPiYjeGE7ICAgIDxnIGZpbGw9IiM3ODQ3MTkiPiYjeGE7ICAgICAgICA8Y2lyY2xlIGN4PSIyNiIgY3k9IjE5IiByPSIxIi8+JiN4YTsgICAgICAgIDxjaXJjbGUgY3g9IjE4IiBjeT0iMTkiIHI9IjEiLz4mI3hhOyAgICA8L2c+JiN4YTsgICAgPHBhdGggZmlsbD0iIzAwOTY4OCIgZD0iTTI3LDMxTDI3LDMxYzAsMC0xLjgsMi01LDJzLTUtMi01LTJTNiwzMyw2LDQ0aDMyQzM4LDMzLDI3LDMxLDI3LDMxeiIvPiYjeGE7ICAgIDxnIGZpbGw9IiNGRjk4MDAiPiYjeGE7ICAgICAgICA8cmVjdCB4PSIzNi4xIiB5PSI2LjEiIHRyYW5zZm9ybT0ibWF0cml4KC43MDcgLjcwNyAtLjcwNyAuNzA3IDE5Ljc4NyAtMjUuNzcpIiB3aWR0aD0iOS45IiBoZWlnaHQ9IjkuOSIvPiYjeGE7ICAgICAgICA8cmVjdCB4PSIzNiIgeT0iNiIgd2lkdGg9IjEwIiBoZWlnaHQ9IjEwIi8+JiN4YTsgICAgPC9nPiYjeGE7ICAgIDxjaXJjbGUgZmlsbD0iI0ZGRUIzQiIgY3g9IjQxIiBjeT0iMTEiIHI9IjMiLz4mI3hhOzwvc3ZnPg==;" vertex="1" parent="1">
          <mxGeometry x="531.5" y="560" width="48" height="48" as="geometry" />
        </mxCell>
        <mxCell id="A5XyS65-MMVEptwIIjuN-71" value="" style="endArrow=none;html=1;rounded=0;entryX=0.5;entryY=1;entryDx=0;entryDy=0;exitX=0.479;exitY=0;exitDx=0;exitDy=0;exitPerimeter=0;" edge="1" parent="1" source="A5XyS65-MMVEptwIIjuN-70">
          <mxGeometry width="50" height="50" relative="1" as="geometry">
            <mxPoint x="479.5" y="560" as="sourcePoint" />
            <mxPoint x="543.5" y="498" as="targetPoint" />
          </mxGeometry>
        </mxCell>
        <mxCell id="A5XyS65-MMVEptwIIjuN-72" value="" style="shape=image;verticalLabelPosition=bottom;verticalAlign=top;imageAspect=0;aspect=fixed;image=data:image/svg+xml,PHN2ZyB4bWxucz0iaHR0cDovL3d3dy53My5vcmcvMjAwMC9zdmciIHZlcnNpb249IjEiIHZpZXdCb3g9IjAgMCA0OCA0OCIgZW5hYmxlLWJhY2tncm91bmQ9Im5ldyAwIDAgNDggNDgiPiYjeGE7ICAgIDxwYXRoIGZpbGw9IiM1NDZFN0EiIGQ9Ik00NCwzMEg0VjExYzAtMi4yLDEuOC00LDQtNGgzMmMyLjIsMCw0LDEuOCw0LDRWMzB6Ii8+JiN4YTsgICAgPHBhdGggZmlsbD0iIzY0QjVGNiIgZD0iTTQwLDI3SDhjLTAuNiwwLTEtMC40LTEtMVYxMWMwLTAuNiwwLjQtMSwxLTFoMzJjMC42LDAsMSwwLjQsMSwxdjE1QzQxLDI2LjYsNDAuNiwyNyw0MCwyN3oiLz4mI3hhOyAgICA8cGF0aCBmaWxsPSIjNzg5MDlDIiBkPSJNNDAsNDFIOGMtMi4yLDAtNC0xLjgtNC00di03aDQwdjdDNDQsMzkuMiw0Mi4yLDQxLDQwLDQxeiIvPiYjeGE7ICAgIDxnIGZpbGw9IiMzNzQ3NEYiPiYjeGE7ICAgICAgICA8cmVjdCB4PSIyNyIgeT0iMzQiIHdpZHRoPSIxMiIgaGVpZ2h0PSIyIi8+JiN4YTsgICAgICAgIDxyZWN0IHg9IjkiIHk9IjM0IiB3aWR0aD0iMTIiIGhlaWdodD0iMiIvPiYjeGE7ICAgICAgICA8cGF0aCBkPSJNMTgsMzVjMCwxLjEtMS4zLDItMywycy0zLTAuOS0zLTJIMTh6Ii8+JiN4YTsgICAgPC9nPiYjeGE7PC9zdmc+;" vertex="1" parent="1">
          <mxGeometry x="618" y="560" width="48" height="48" as="geometry" />
        </mxCell>
        <mxCell id="A5XyS65-MMVEptwIIjuN-73" value="" style="endArrow=none;html=1;rounded=0;entryX=0.25;entryY=1;entryDx=0;entryDy=0;exitX=0.75;exitY=0;exitDx=0;exitDy=0;" edge="1" parent="1" source="A5XyS65-MMVEptwIIjuN-72">
          <mxGeometry width="50" height="50" relative="1" as="geometry">
            <mxPoint x="847" y="540" as="sourcePoint" />
            <mxPoint x="670" y="498" as="targetPoint" />
          </mxGeometry>
        </mxCell>
        <mxCell id="A5XyS65-MMVEptwIIjuN-74" value="" style="shape=image;verticalLabelPosition=bottom;verticalAlign=top;imageAspect=0;aspect=fixed;image=data:image/svg+xml,PHN2ZyB4bWxucz0iaHR0cDovL3d3dy53My5vcmcvMjAwMC9zdmciIHZlcnNpb249IjEiIHZpZXdCb3g9IjAgMCA0OCA0OCIgZW5hYmxlLWJhY2tncm91bmQ9Im5ldyAwIDAgNDggNDgiPiYjeGE7ICAgIDxwYXRoIGZpbGw9IiNGRjk4MDAiIGQ9Ik0yMiwzOGMtNC44LDAtNS03LTUtN3YtNmgxMHY2QzI3LDMxLDI2LjgsMzgsMjIsMzh6Ii8+JiN4YTsgICAgPGcgZmlsbD0iI0ZGQTcyNiI+JiN4YTsgICAgICAgIDxjaXJjbGUgY3g9IjMxIiBjeT0iMTkiIHI9IjIiLz4mI3hhOyAgICAgICAgPGNpcmNsZSBjeD0iMTMiIGN5PSIxOSIgcj0iMiIvPiYjeGE7ICAgIDwvZz4mI3hhOyAgICA8cGF0aCBmaWxsPSIjRkZCNzREIiBkPSJNMzEsMTNjMC03LjYtMTgtNS0xOCwwYzAsMS4xLDAsNS45LDAsN2MwLDUsNCw5LDksOXM5LTQsOS05QzMxLDE4LjksMzEsMTQuMSwzMSwxM3oiLz4mI3hhOyAgICA8cGF0aCBmaWxsPSIjNDI0MjQyIiBkPSJNMjIsNGMtNi4xLDAtMTAsNC45LTEwLDExYzAsMC44LDAsMi4zLDAsMi4zbDIsMS43di01bDEyLTRsNCw0djVsMi0xLjdjMCwwLDAtMS41LDAtMi4zYzAtNC0xLTgtNi05bC0xLTIgSDIyeiIvPiYjeGE7ICAgIDxnIGZpbGw9IiM3ODQ3MTkiPiYjeGE7ICAgICAgICA8Y2lyY2xlIGN4PSIyNiIgY3k9IjE5IiByPSIxIi8+JiN4YTsgICAgICAgIDxjaXJjbGUgY3g9IjE4IiBjeT0iMTkiIHI9IjEiLz4mI3hhOyAgICA8L2c+JiN4YTsgICAgPHBhdGggZmlsbD0iIzAwOTY4OCIgZD0iTTI3LDMxTDI3LDMxYzAsMC0xLjgsMi01LDJzLTUtMi01LTJTNiwzMyw2LDQ0aDMyQzM4LDMzLDI3LDMxLDI3LDMxeiIvPiYjeGE7ICAgIDxnIGZpbGw9IiNGRjk4MDAiPiYjeGE7ICAgICAgICA8cmVjdCB4PSIzNi4xIiB5PSI2LjEiIHRyYW5zZm9ybT0ibWF0cml4KC43MDcgLjcwNyAtLjcwNyAuNzA3IDE5Ljc4NyAtMjUuNzcpIiB3aWR0aD0iOS45IiBoZWlnaHQ9IjkuOSIvPiYjeGE7ICAgICAgICA8cmVjdCB4PSIzNiIgeT0iNiIgd2lkdGg9IjEwIiBoZWlnaHQ9IjEwIi8+JiN4YTsgICAgPC9nPiYjeGE7ICAgIDxjaXJjbGUgZmlsbD0iI0ZGRUIzQiIgY3g9IjQxIiBjeT0iMTEiIHI9IjMiLz4mI3hhOzwvc3ZnPg==;" vertex="1" parent="1">
          <mxGeometry x="685" y="560" width="48" height="48" as="geometry" />
        </mxCell>
        <mxCell id="A5XyS65-MMVEptwIIjuN-75" value="" style="endArrow=none;html=1;rounded=0;entryX=0.5;entryY=1;entryDx=0;entryDy=0;exitX=0.479;exitY=0;exitDx=0;exitDy=0;exitPerimeter=0;" edge="1" parent="1" source="A5XyS65-MMVEptwIIjuN-74">
          <mxGeometry width="50" height="50" relative="1" as="geometry">
            <mxPoint x="633" y="560" as="sourcePoint" />
            <mxPoint x="697" y="498" as="targetPoint" />
          </mxGeometry>
        </mxCell>
        <mxCell id="A5XyS65-MMVEptwIIjuN-76" value="" style="shape=image;verticalLabelPosition=bottom;verticalAlign=top;imageAspect=0;aspect=fixed;image=data:image/svg+xml,PHN2ZyB4bWxucz0iaHR0cDovL3d3dy53My5vcmcvMjAwMC9zdmciIHZlcnNpb249IjEiIHZpZXdCb3g9IjAgMCA0OCA0OCIgZW5hYmxlLWJhY2tncm91bmQ9Im5ldyAwIDAgNDggNDgiPiYjeGE7ICAgIDxwYXRoIGZpbGw9IiM1NDZFN0EiIGQ9Ik00NCwzMEg0VjExYzAtMi4yLDEuOC00LDQtNGgzMmMyLjIsMCw0LDEuOCw0LDRWMzB6Ii8+JiN4YTsgICAgPHBhdGggZmlsbD0iIzY0QjVGNiIgZD0iTTQwLDI3SDhjLTAuNiwwLTEtMC40LTEtMVYxMWMwLTAuNiwwLjQtMSwxLTFoMzJjMC42LDAsMSwwLjQsMSwxdjE1QzQxLDI2LjYsNDAuNiwyNyw0MCwyN3oiLz4mI3hhOyAgICA8cGF0aCBmaWxsPSIjNzg5MDlDIiBkPSJNNDAsNDFIOGMtMi4yLDAtNC0xLjgtNC00di03aDQwdjdDNDQsMzkuMiw0Mi4yLDQxLDQwLDQxeiIvPiYjeGE7ICAgIDxnIGZpbGw9IiMzNzQ3NEYiPiYjeGE7ICAgICAgICA8cmVjdCB4PSIyNyIgeT0iMzQiIHdpZHRoPSIxMiIgaGVpZ2h0PSIyIi8+JiN4YTsgICAgICAgIDxyZWN0IHg9IjkiIHk9IjM0IiB3aWR0aD0iMTIiIGhlaWdodD0iMiIvPiYjeGE7ICAgICAgICA8cGF0aCBkPSJNMTgsMzVjMCwxLjEtMS4zLDItMywycy0zLTAuOS0zLTJIMTh6Ii8+JiN4YTsgICAgPC9nPiYjeGE7PC9zdmc+;" vertex="1" parent="1">
          <mxGeometry x="740" y="560" width="48" height="48" as="geometry" />
        </mxCell>
        <mxCell id="A5XyS65-MMVEptwIIjuN-77" value="" style="endArrow=none;html=1;rounded=0;entryX=0.25;entryY=1;entryDx=0;entryDy=0;exitX=0.75;exitY=0;exitDx=0;exitDy=0;" edge="1" parent="1" source="A5XyS65-MMVEptwIIjuN-76">
          <mxGeometry width="50" height="50" relative="1" as="geometry">
            <mxPoint x="969" y="540" as="sourcePoint" />
            <mxPoint x="792" y="498" as="targetPoint" />
          </mxGeometry>
        </mxCell>
        <mxCell id="A5XyS65-MMVEptwIIjuN-78" value="" style="shape=image;verticalLabelPosition=bottom;verticalAlign=top;imageAspect=0;aspect=fixed;image=data:image/svg+xml,PHN2ZyB4bWxucz0iaHR0cDovL3d3dy53My5vcmcvMjAwMC9zdmciIHZlcnNpb249IjEiIHZpZXdCb3g9IjAgMCA0OCA0OCIgZW5hYmxlLWJhY2tncm91bmQ9Im5ldyAwIDAgNDggNDgiPiYjeGE7ICAgIDxwYXRoIGZpbGw9IiNGRjk4MDAiIGQ9Ik0yMiwzOGMtNC44LDAtNS03LTUtN3YtNmgxMHY2QzI3LDMxLDI2LjgsMzgsMjIsMzh6Ii8+JiN4YTsgICAgPGcgZmlsbD0iI0ZGQTcyNiI+JiN4YTsgICAgICAgIDxjaXJjbGUgY3g9IjMxIiBjeT0iMTkiIHI9IjIiLz4mI3hhOyAgICAgICAgPGNpcmNsZSBjeD0iMTMiIGN5PSIxOSIgcj0iMiIvPiYjeGE7ICAgIDwvZz4mI3hhOyAgICA8cGF0aCBmaWxsPSIjRkZCNzREIiBkPSJNMzEsMTNjMC03LjYtMTgtNS0xOCwwYzAsMS4xLDAsNS45LDAsN2MwLDUsNCw5LDksOXM5LTQsOS05QzMxLDE4LjksMzEsMTQuMSwzMSwxM3oiLz4mI3hhOyAgICA8cGF0aCBmaWxsPSIjNDI0MjQyIiBkPSJNMjIsNGMtNi4xLDAtMTAsNC45LTEwLDExYzAsMC44LDAsMi4zLDAsMi4zbDIsMS43di01bDEyLTRsNCw0djVsMi0xLjdjMCwwLDAtMS41LDAtMi4zYzAtNC0xLTgtNi05bC0xLTIgSDIyeiIvPiYjeGE7ICAgIDxnIGZpbGw9IiM3ODQ3MTkiPiYjeGE7ICAgICAgICA8Y2lyY2xlIGN4PSIyNiIgY3k9IjE5IiByPSIxIi8+JiN4YTsgICAgICAgIDxjaXJjbGUgY3g9IjE4IiBjeT0iMTkiIHI9IjEiLz4mI3hhOyAgICA8L2c+JiN4YTsgICAgPHBhdGggZmlsbD0iIzAwOTY4OCIgZD0iTTI3LDMxTDI3LDMxYzAsMC0xLjgsMi01LDJzLTUtMi01LTJTNiwzMyw2LDQ0aDMyQzM4LDMzLDI3LDMxLDI3LDMxeiIvPiYjeGE7ICAgIDxnIGZpbGw9IiNGRjk4MDAiPiYjeGE7ICAgICAgICA8cmVjdCB4PSIzNi4xIiB5PSI2LjEiIHRyYW5zZm9ybT0ibWF0cml4KC43MDcgLjcwNyAtLjcwNyAuNzA3IDE5Ljc4NyAtMjUuNzcpIiB3aWR0aD0iOS45IiBoZWlnaHQ9IjkuOSIvPiYjeGE7ICAgICAgICA8cmVjdCB4PSIzNiIgeT0iNiIgd2lkdGg9IjEwIiBoZWlnaHQ9IjEwIi8+JiN4YTsgICAgPC9nPiYjeGE7ICAgIDxjaXJjbGUgZmlsbD0iI0ZGRUIzQiIgY3g9IjQxIiBjeT0iMTEiIHI9IjMiLz4mI3hhOzwvc3ZnPg==;" vertex="1" parent="1">
          <mxGeometry x="807" y="560" width="48" height="48" as="geometry" />
        </mxCell>
        <mxCell id="A5XyS65-MMVEptwIIjuN-79" value="" style="endArrow=none;html=1;rounded=0;entryX=0.5;entryY=1;entryDx=0;entryDy=0;exitX=0.479;exitY=0;exitDx=0;exitDy=0;exitPerimeter=0;" edge="1" parent="1" source="A5XyS65-MMVEptwIIjuN-78">
          <mxGeometry width="50" height="50" relative="1" as="geometry">
            <mxPoint x="755" y="560" as="sourcePoint" />
            <mxPoint x="819" y="498" as="targetPoint" />
          </mxGeometry>
        </mxCell>
        <mxCell id="A5XyS65-MMVEptwIIjuN-80" value="" style="shape=image;verticalLabelPosition=bottom;verticalAlign=top;imageAspect=0;aspect=fixed;image=data:image/svg+xml,PHN2ZyB4bWxucz0iaHR0cDovL3d3dy53My5vcmcvMjAwMC9zdmciIHZlcnNpb249IjEiIHZpZXdCb3g9IjAgMCA0OCA0OCIgZW5hYmxlLWJhY2tncm91bmQ9Im5ldyAwIDAgNDggNDgiPiYjeGE7ICAgIDxwYXRoIGZpbGw9IiM1NDZFN0EiIGQ9Ik00NCwzMEg0VjExYzAtMi4yLDEuOC00LDQtNGgzMmMyLjIsMCw0LDEuOCw0LDRWMzB6Ii8+JiN4YTsgICAgPHBhdGggZmlsbD0iIzY0QjVGNiIgZD0iTTQwLDI3SDhjLTAuNiwwLTEtMC40LTEtMVYxMWMwLTAuNiwwLjQtMSwxLTFoMzJjMC42LDAsMSwwLjQsMSwxdjE1QzQxLDI2LjYsNDAuNiwyNyw0MCwyN3oiLz4mI3hhOyAgICA8cGF0aCBmaWxsPSIjNzg5MDlDIiBkPSJNNDAsNDFIOGMtMi4yLDAtNC0xLjgtNC00di03aDQwdjdDNDQsMzkuMiw0Mi4yLDQxLDQwLDQxeiIvPiYjeGE7ICAgIDxnIGZpbGw9IiMzNzQ3NEYiPiYjeGE7ICAgICAgICA8cmVjdCB4PSIyNyIgeT0iMzQiIHdpZHRoPSIxMiIgaGVpZ2h0PSIyIi8+JiN4YTsgICAgICAgIDxyZWN0IHg9IjkiIHk9IjM0IiB3aWR0aD0iMTIiIGhlaWdodD0iMiIvPiYjeGE7ICAgICAgICA8cGF0aCBkPSJNMTgsMzVjMCwxLjEtMS4zLDItMywycy0zLTAuOS0zLTJIMTh6Ii8+JiN4YTsgICAgPC9nPiYjeGE7PC9zdmc+;" vertex="1" parent="1">
          <mxGeometry x="880" y="560" width="48" height="48" as="geometry" />
        </mxCell>
        <mxCell id="A5XyS65-MMVEptwIIjuN-81" value="" style="endArrow=none;html=1;rounded=0;entryX=0.25;entryY=1;entryDx=0;entryDy=0;exitX=0.75;exitY=0;exitDx=0;exitDy=0;" edge="1" parent="1" source="A5XyS65-MMVEptwIIjuN-80">
          <mxGeometry width="50" height="50" relative="1" as="geometry">
            <mxPoint x="1109" y="540" as="sourcePoint" />
            <mxPoint x="932" y="498" as="targetPoint" />
          </mxGeometry>
        </mxCell>
        <mxCell id="A5XyS65-MMVEptwIIjuN-82" value="" style="shape=image;verticalLabelPosition=bottom;verticalAlign=top;imageAspect=0;aspect=fixed;image=data:image/svg+xml,PHN2ZyB4bWxucz0iaHR0cDovL3d3dy53My5vcmcvMjAwMC9zdmciIHZlcnNpb249IjEiIHZpZXdCb3g9IjAgMCA0OCA0OCIgZW5hYmxlLWJhY2tncm91bmQ9Im5ldyAwIDAgNDggNDgiPiYjeGE7ICAgIDxwYXRoIGZpbGw9IiNGRjk4MDAiIGQ9Ik0yMiwzOGMtNC44LDAtNS03LTUtN3YtNmgxMHY2QzI3LDMxLDI2LjgsMzgsMjIsMzh6Ii8+JiN4YTsgICAgPGcgZmlsbD0iI0ZGQTcyNiI+JiN4YTsgICAgICAgIDxjaXJjbGUgY3g9IjMxIiBjeT0iMTkiIHI9IjIiLz4mI3hhOyAgICAgICAgPGNpcmNsZSBjeD0iMTMiIGN5PSIxOSIgcj0iMiIvPiYjeGE7ICAgIDwvZz4mI3hhOyAgICA8cGF0aCBmaWxsPSIjRkZCNzREIiBkPSJNMzEsMTNjMC03LjYtMTgtNS0xOCwwYzAsMS4xLDAsNS45LDAsN2MwLDUsNCw5LDksOXM5LTQsOS05QzMxLDE4LjksMzEsMTQuMSwzMSwxM3oiLz4mI3hhOyAgICA8cGF0aCBmaWxsPSIjNDI0MjQyIiBkPSJNMjIsNGMtNi4xLDAtMTAsNC45LTEwLDExYzAsMC44LDAsMi4zLDAsMi4zbDIsMS43di01bDEyLTRsNCw0djVsMi0xLjdjMCwwLDAtMS41LDAtMi4zYzAtNC0xLTgtNi05bC0xLTIgSDIyeiIvPiYjeGE7ICAgIDxnIGZpbGw9IiM3ODQ3MTkiPiYjeGE7ICAgICAgICA8Y2lyY2xlIGN4PSIyNiIgY3k9IjE5IiByPSIxIi8+JiN4YTsgICAgICAgIDxjaXJjbGUgY3g9IjE4IiBjeT0iMTkiIHI9IjEiLz4mI3hhOyAgICA8L2c+JiN4YTsgICAgPHBhdGggZmlsbD0iIzAwOTY4OCIgZD0iTTI3LDMxTDI3LDMxYzAsMC0xLjgsMi01LDJzLTUtMi01LTJTNiwzMyw2LDQ0aDMyQzM4LDMzLDI3LDMxLDI3LDMxeiIvPiYjeGE7ICAgIDxnIGZpbGw9IiNGRjk4MDAiPiYjeGE7ICAgICAgICA8cmVjdCB4PSIzNi4xIiB5PSI2LjEiIHRyYW5zZm9ybT0ibWF0cml4KC43MDcgLjcwNyAtLjcwNyAuNzA3IDE5Ljc4NyAtMjUuNzcpIiB3aWR0aD0iOS45IiBoZWlnaHQ9IjkuOSIvPiYjeGE7ICAgICAgICA8cmVjdCB4PSIzNiIgeT0iNiIgd2lkdGg9IjEwIiBoZWlnaHQ9IjEwIi8+JiN4YTsgICAgPC9nPiYjeGE7ICAgIDxjaXJjbGUgZmlsbD0iI0ZGRUIzQiIgY3g9IjQxIiBjeT0iMTEiIHI9IjMiLz4mI3hhOzwvc3ZnPg==;" vertex="1" parent="1">
          <mxGeometry x="947" y="560" width="48" height="48" as="geometry" />
        </mxCell>
        <mxCell id="A5XyS65-MMVEptwIIjuN-83" value="" style="endArrow=none;html=1;rounded=0;entryX=0.5;entryY=1;entryDx=0;entryDy=0;exitX=0.479;exitY=0;exitDx=0;exitDy=0;exitPerimeter=0;" edge="1" parent="1" source="A5XyS65-MMVEptwIIjuN-82">
          <mxGeometry width="50" height="50" relative="1" as="geometry">
            <mxPoint x="895" y="560" as="sourcePoint" />
            <mxPoint x="959" y="498" as="targetPoint" />
          </mxGeometry>
        </mxCell>
        <mxCell id="A5XyS65-MMVEptwIIjuN-84" value="" style="shape=image;verticalLabelPosition=bottom;verticalAlign=top;imageAspect=0;aspect=fixed;image=data:image/svg+xml,PHN2ZyB4bWxucz0iaHR0cDovL3d3dy53My5vcmcvMjAwMC9zdmciIHZlcnNpb249IjEiIHZpZXdCb3g9IjAgMCA0OCA0OCIgZW5hYmxlLWJhY2tncm91bmQ9Im5ldyAwIDAgNDggNDgiPiYjeGE7ICAgIDxwYXRoIGZpbGw9IiM1NDZFN0EiIGQ9Ik00NCwzMEg0VjExYzAtMi4yLDEuOC00LDQtNGgzMmMyLjIsMCw0LDEuOCw0LDRWMzB6Ii8+JiN4YTsgICAgPHBhdGggZmlsbD0iIzY0QjVGNiIgZD0iTTQwLDI3SDhjLTAuNiwwLTEtMC40LTEtMVYxMWMwLTAuNiwwLjQtMSwxLTFoMzJjMC42LDAsMSwwLjQsMSwxdjE1QzQxLDI2LjYsNDAuNiwyNyw0MCwyN3oiLz4mI3hhOyAgICA8cGF0aCBmaWxsPSIjNzg5MDlDIiBkPSJNNDAsNDFIOGMtMi4yLDAtNC0xLjgtNC00di03aDQwdjdDNDQsMzkuMiw0Mi4yLDQxLDQwLDQxeiIvPiYjeGE7ICAgIDxnIGZpbGw9IiMzNzQ3NEYiPiYjeGE7ICAgICAgICA8cmVjdCB4PSIyNyIgeT0iMzQiIHdpZHRoPSIxMiIgaGVpZ2h0PSIyIi8+JiN4YTsgICAgICAgIDxyZWN0IHg9IjkiIHk9IjM0IiB3aWR0aD0iMTIiIGhlaWdodD0iMiIvPiYjeGE7ICAgICAgICA8cGF0aCBkPSJNMTgsMzVjMCwxLjEtMS4zLDItMywycy0zLTAuOS0zLTJIMTh6Ii8+JiN4YTsgICAgPC9nPiYjeGE7PC9zdmc+;" vertex="1" parent="1">
          <mxGeometry x="1020" y="560" width="48" height="48" as="geometry" />
        </mxCell>
        <mxCell id="A5XyS65-MMVEptwIIjuN-85" value="" style="endArrow=none;html=1;rounded=0;entryX=0.25;entryY=1;entryDx=0;entryDy=0;exitX=0.75;exitY=0;exitDx=0;exitDy=0;" edge="1" parent="1" source="A5XyS65-MMVEptwIIjuN-84">
          <mxGeometry width="50" height="50" relative="1" as="geometry">
            <mxPoint x="1249" y="540" as="sourcePoint" />
            <mxPoint x="1072" y="498" as="targetPoint" />
          </mxGeometry>
        </mxCell>
        <mxCell id="A5XyS65-MMVEptwIIjuN-86" value="" style="shape=image;verticalLabelPosition=bottom;verticalAlign=top;imageAspect=0;aspect=fixed;image=data:image/svg+xml,PHN2ZyB4bWxucz0iaHR0cDovL3d3dy53My5vcmcvMjAwMC9zdmciIHZlcnNpb249IjEiIHZpZXdCb3g9IjAgMCA0OCA0OCIgZW5hYmxlLWJhY2tncm91bmQ9Im5ldyAwIDAgNDggNDgiPiYjeGE7ICAgIDxwYXRoIGZpbGw9IiNGRjk4MDAiIGQ9Ik0yMiwzOGMtNC44LDAtNS03LTUtN3YtNmgxMHY2QzI3LDMxLDI2LjgsMzgsMjIsMzh6Ii8+JiN4YTsgICAgPGcgZmlsbD0iI0ZGQTcyNiI+JiN4YTsgICAgICAgIDxjaXJjbGUgY3g9IjMxIiBjeT0iMTkiIHI9IjIiLz4mI3hhOyAgICAgICAgPGNpcmNsZSBjeD0iMTMiIGN5PSIxOSIgcj0iMiIvPiYjeGE7ICAgIDwvZz4mI3hhOyAgICA8cGF0aCBmaWxsPSIjRkZCNzREIiBkPSJNMzEsMTNjMC03LjYtMTgtNS0xOCwwYzAsMS4xLDAsNS45LDAsN2MwLDUsNCw5LDksOXM5LTQsOS05QzMxLDE4LjksMzEsMTQuMSwzMSwxM3oiLz4mI3hhOyAgICA8cGF0aCBmaWxsPSIjNDI0MjQyIiBkPSJNMjIsNGMtNi4xLDAtMTAsNC45LTEwLDExYzAsMC44LDAsMi4zLDAsMi4zbDIsMS43di01bDEyLTRsNCw0djVsMi0xLjdjMCwwLDAtMS41LDAtMi4zYzAtNC0xLTgtNi05bC0xLTIgSDIyeiIvPiYjeGE7ICAgIDxnIGZpbGw9IiM3ODQ3MTkiPiYjeGE7ICAgICAgICA8Y2lyY2xlIGN4PSIyNiIgY3k9IjE5IiByPSIxIi8+JiN4YTsgICAgICAgIDxjaXJjbGUgY3g9IjE4IiBjeT0iMTkiIHI9IjEiLz4mI3hhOyAgICA8L2c+JiN4YTsgICAgPHBhdGggZmlsbD0iIzAwOTY4OCIgZD0iTTI3LDMxTDI3LDMxYzAsMC0xLjgsMi01LDJzLTUtMi01LTJTNiwzMyw2LDQ0aDMyQzM4LDMzLDI3LDMxLDI3LDMxeiIvPiYjeGE7ICAgIDxnIGZpbGw9IiNGRjk4MDAiPiYjeGE7ICAgICAgICA8cmVjdCB4PSIzNi4xIiB5PSI2LjEiIHRyYW5zZm9ybT0ibWF0cml4KC43MDcgLjcwNyAtLjcwNyAuNzA3IDE5Ljc4NyAtMjUuNzcpIiB3aWR0aD0iOS45IiBoZWlnaHQ9IjkuOSIvPiYjeGE7ICAgICAgICA8cmVjdCB4PSIzNiIgeT0iNiIgd2lkdGg9IjEwIiBoZWlnaHQ9IjEwIi8+JiN4YTsgICAgPC9nPiYjeGE7ICAgIDxjaXJjbGUgZmlsbD0iI0ZGRUIzQiIgY3g9IjQxIiBjeT0iMTEiIHI9IjMiLz4mI3hhOzwvc3ZnPg==;" vertex="1" parent="1">
          <mxGeometry x="1087" y="560" width="48" height="48" as="geometry" />
        </mxCell>
        <mxCell id="A5XyS65-MMVEptwIIjuN-87" value="" style="endArrow=none;html=1;rounded=0;entryX=0.5;entryY=1;entryDx=0;entryDy=0;exitX=0.479;exitY=0;exitDx=0;exitDy=0;exitPerimeter=0;" edge="1" parent="1" source="A5XyS65-MMVEptwIIjuN-86">
          <mxGeometry width="50" height="50" relative="1" as="geometry">
            <mxPoint x="1035" y="560" as="sourcePoint" />
            <mxPoint x="1099" y="498" as="targetPoint" />
          </mxGeometry>
        </mxCell>
      </root>
    </mxGraphModel>
  </diagram>
</mxfile>
